<svg width="24" height="24" viewBox="0 0 24 24" fill="none" xmlns="http://www.w3.org/2000/svg">
<mask id="mask0_7003_305" style="mask-type:alpha" maskUnits="userSpaceOnUse" x="0" y="0" width="24" height="24">
<rect width="24" height="24" fill="#D9D9D9"/>
</mask>
<g mask="url(#mask0_7003_305)">
<path d="M4.81924 11.8C5.22957 10.459 6.03057 9.03208 7.22224 7.51924C8.41391 6.00641 10.0065 4.38466 12 2.65399C13.9935 4.38466 15.5861 6.00641 16.7777 7.51924C17.9694 9.03208 18.7704 10.459 19.1807 11.8H17.6C17.2167 10.7667 16.5583 9.65416 15.625 8.46249C14.6917 7.27083 13.4833 5.99999 12 4.64999C10.5333 5.99999 9.32916 7.27083 8.38749 8.46249C7.44582 9.65416 6.78332 10.7667 6.39999 11.8H4.81924ZM19.4077 14.825C19.3154 15.398 19.1507 15.9428 18.9135 16.4595C18.6763 16.9762 18.3718 17.4492 18 17.8787L15.7882 20.0807C15.3587 20.4526 14.8873 20.7529 14.374 20.9817C13.8605 21.2106 13.3223 21.3628 12.7595 21.4385L19.4077 14.825ZM15.1787 13.8H17.3267L9.93849 21.1787C9.65766 21.1082 9.38616 21.0284 9.12399 20.9392C8.86182 20.8502 8.60899 20.7333 8.36549 20.5885L15.1787 13.8ZM9.93449 13.8H12.0827L6.64624 19.2365C6.46024 19.0545 6.28682 18.8673 6.12599 18.675C5.96516 18.4827 5.81549 18.2769 5.67699 18.0577L9.93449 13.8ZM4.48474 13.8H6.83274L4.76549 15.8672C4.67049 15.5262 4.60249 15.1842 4.56149 14.8412C4.52049 14.4984 4.49491 14.1513 4.48474 13.8Z" fill="#0475F4"/>
</g>
</svg>
