<svg width="20" height="20" viewBox="0 0 20 20" fill="none" xmlns="http://www.w3.org/2000/svg">
<mask id="mask0_6752_2642" style="mask-type:alpha" maskUnits="userSpaceOnUse" x="0" y="0" width="20" height="20">
<rect width="20" height="20" fill="#D9D9D9"/>
</mask>
<g mask="url(#mask0_6752_2642)">
<path d="M7.45917 16.5375C6.76417 15.8403 6.41667 14.9945 6.41667 14C6.41667 13.4061 6.54299 12.8559 6.79563 12.3494C7.04841 11.843 7.42209 11.4333 7.91667 11.1202V4.50002C7.91667 3.9178 8.11834 3.42502 8.52167 3.02169C8.92501 2.61835 9.41778 2.41669 10 2.41669C10.5822 2.41669 11.075 2.61835 11.4783 3.02169C11.8817 3.42502 12.0833 3.9178 12.0833 4.50002V11.1202C12.564 11.4333 12.9342 11.8468 13.194 12.3606C13.4535 12.8745 13.5833 13.421 13.5833 14C13.5833 14.9945 13.2342 15.8403 12.536 16.5375C11.838 17.2347 10.991 17.5834 9.99521 17.5834C8.99952 17.5834 8.15417 17.2347 7.45917 16.5375ZM9.00001 9.16023H11V7.9519H10V7.04815H11V5.9519H10V5.04815H11V4.50002C11 4.21669 10.9028 3.97919 10.7083 3.78752C10.5139 3.59585 10.2778 3.50002 10 3.50002C9.72223 3.50002 9.48612 3.59585 9.29167 3.78752C9.09723 3.97919 9.00001 4.21669 9.00001 4.50002V9.16023Z" fill="#0475F4"/>
</g>
</svg>
