<svg width="24" height="24" viewBox="0 0 24 24" fill="none" xmlns="http://www.w3.org/2000/svg">
<mask id="mask0_7003_285" style="mask-type:alpha" maskUnits="userSpaceOnUse" x="0" y="0" width="24" height="24">
<rect width="24" height="24" fill="#D9D9D9"/>
</mask>
<g mask="url(#mask0_7003_285)">
<path d="M10.6578 21.4038C9.90825 21.4038 9.33884 21.1807 8.9495 20.7345C8.56017 20.2882 8.3655 19.7797 8.3655 19.209C8.3655 18.8287 8.4485 18.4568 8.6145 18.0933C8.7805 17.7298 9.04109 17.4308 9.39625 17.1963C9.76925 16.9501 10.0747 16.626 10.3125 16.224C10.5503 15.8222 10.7205 15.384 10.823 14.9095C10.691 14.8532 10.5606 14.792 10.4318 14.726C10.3029 14.66 10.1808 14.5776 10.0655 14.4788L7.74625 15.3135C7.48209 15.407 7.22859 15.4839 6.98575 15.5443C6.74292 15.6044 6.4925 15.6345 6.2345 15.6345C5.27817 15.6345 4.43267 15.2121 3.698 14.3673C2.9635 13.5224 2.59625 12.2859 2.59625 10.6578C2.59625 9.90825 2.81884 9.33884 3.264 8.9495C3.709 8.56017 4.20884 8.3655 4.7635 8.3655C5.152 8.3655 5.5305 8.4485 5.899 8.6145C6.26767 8.7805 6.56925 9.04109 6.80375 9.39625C7.04992 9.76925 7.374 10.0747 7.776 10.3125C8.17784 10.5503 8.616 10.7205 9.0905 10.823C9.14684 10.691 9.208 10.5606 9.274 10.4318C9.34 10.3029 9.42242 10.1808 9.52125 10.0655L8.6865 7.74625C8.593 7.48859 8.51609 7.236 8.45575 6.9885C8.39559 6.741 8.3655 6.49675 8.3655 6.25575C8.3655 5.21475 8.81575 4.34459 9.71625 3.64525C10.6169 2.94592 11.8256 2.59625 13.3423 2.59625C14.0918 2.59625 14.6612 2.81834 15.0505 3.2625C15.4398 3.70667 15.6345 4.2055 15.6345 4.759C15.6345 5.13767 15.5515 5.51292 15.3855 5.88475C15.2195 6.25642 14.9589 6.55959 14.6038 6.79425C14.2308 7.04042 13.9253 7.36609 13.6875 7.77125C13.4497 8.17625 13.2795 8.616 13.177 9.0905C13.3153 9.15334 13.4493 9.21834 13.5788 9.2855C13.7081 9.35284 13.8267 9.43142 13.9345 9.52125L16.2538 8.6615C16.5179 8.568 16.7676 8.49525 17.0028 8.44325C17.2381 8.39142 17.4848 8.3655 17.7428 8.3655C18.9719 8.3655 19.8894 8.87892 20.4953 9.90575C21.1009 10.9328 21.4038 12.0783 21.4038 13.3423C21.4038 14.0918 21.1692 14.6612 20.7 15.0505C20.2307 15.4398 19.7101 15.6345 19.1383 15.6345C18.7718 15.6345 18.4151 15.5515 18.0683 15.3855C17.7214 15.2195 17.4308 14.9589 17.1963 14.6038C16.9501 14.2308 16.626 13.9253 16.224 13.6875C15.8222 13.4497 15.384 13.2795 14.9095 13.177C14.8532 13.309 14.792 13.4378 14.726 13.5635C14.66 13.6892 14.5776 13.8128 14.4788 13.9345L15.3135 16.2538C15.4052 16.5023 15.4816 16.7391 15.5428 16.9643C15.6039 17.1894 15.6345 17.4193 15.6345 17.6538C15.6383 18.6281 15.2193 19.4967 14.3775 20.2595C13.5355 21.0223 12.2956 21.4038 10.6578 21.4038ZM12.0023 13.6538C12.4623 13.6538 12.8525 13.4928 13.173 13.1708C13.4935 12.8488 13.6538 12.4578 13.6538 11.9978C13.6538 11.5378 13.4928 11.1475 13.1708 10.827C12.8488 10.5065 12.4578 10.3463 11.9978 10.3463C11.5378 10.3463 11.1475 10.5073 10.827 10.8293C10.5065 11.1513 10.3463 11.5423 10.3463 12.0023C10.3463 12.4623 10.5073 12.8525 10.8293 13.173C11.1513 13.4935 11.5423 13.6538 12.0023 13.6538ZM10.773 9.1135C10.918 9.04167 11.0671 8.98684 11.2203 8.949C11.3734 8.91117 11.5257 8.88717 11.677 8.877C11.8103 8.18334 12.0517 7.54617 12.401 6.9655C12.7503 6.38467 13.2077 5.91025 13.773 5.54225C13.8885 5.45642 13.9777 5.35067 14.0405 5.225C14.1033 5.09934 14.1348 4.9455 14.1348 4.7635C14.1348 4.57617 14.0703 4.41809 13.9413 4.28925C13.8124 4.16059 13.6128 4.09625 13.3423 4.09625C12.6946 4.09625 11.9618 4.24309 11.1438 4.53675C10.3256 4.83059 9.89942 5.40492 9.86525 6.25975C9.86525 6.41992 9.88775 6.56992 9.93275 6.70975C9.97759 6.84942 10.0167 6.97759 10.05 7.09425L10.773 9.1135ZM6.23075 14.1348C6.45775 14.1348 6.74559 14.0732 7.09425 13.95L9.123 13.227C9.05134 13.0948 8.99492 12.9522 8.95375 12.799C8.91275 12.6458 8.88717 12.4872 8.877 12.323C8.18334 12.1897 7.54617 11.9483 6.9655 11.599C6.38467 11.2497 5.91025 10.7923 5.54225 10.227C5.45642 10.1115 5.34334 10.0223 5.203 9.9595C5.0625 9.89667 4.916 9.86525 4.7635 9.86525C4.54934 9.86525 4.38459 9.92975 4.26925 10.0588C4.15392 10.1876 4.09625 10.3873 4.09625 10.6578C4.09625 11.5781 4.27859 12.3877 4.64325 13.0865C5.00792 13.7853 5.53709 14.1348 6.23075 14.1348ZM10.6578 19.9038C11.4541 19.9038 12.2378 19.7343 13.0088 19.3953C13.7799 19.0561 14.1553 18.4756 14.1348 17.6538C14.1348 17.5088 14.1123 17.3728 14.0673 17.246C14.0224 17.1192 13.9833 17.0058 13.95 16.9058L13.227 14.877C13.082 14.9552 12.9282 15.0132 12.7655 15.051C12.6027 15.0888 12.4552 15.1128 12.323 15.123C12.1897 15.8167 11.9483 16.4538 11.599 17.0345C11.2497 17.6153 10.7923 18.0898 10.227 18.4578C10.118 18.5373 10.0279 18.6472 9.95675 18.7875C9.88559 18.9278 9.85509 19.0692 9.86525 19.2115C9.87559 19.3962 9.94009 19.5578 10.0588 19.6963C10.1773 19.8346 10.3769 19.9038 10.6578 19.9038ZM19.1493 14.1348C19.3484 14.1348 19.524 14.0786 19.676 13.9663C19.8278 13.8541 19.9038 13.6461 19.9038 13.3423C19.9038 12.6946 19.7613 11.9574 19.4765 11.1308C19.1917 10.3043 18.6129 9.88242 17.7403 9.86525C17.5801 9.86525 17.4318 9.88192 17.2953 9.91525C17.1586 9.94859 17.0288 9.98517 16.9058 10.025L14.8865 10.773C14.9518 10.9115 15.0051 11.059 15.0463 11.2155C15.0873 11.3718 15.1128 11.5257 15.123 11.677C15.8167 11.8103 16.4538 12.0517 17.0345 12.401C17.6153 12.7503 18.0898 13.2077 18.4578 13.773C18.5206 13.8757 18.6183 13.9616 18.751 14.0308C18.8838 14.1001 19.0166 14.1348 19.1493 14.1348Z" fill="#0475F4"/>
</g>
</svg>
