<svg width="20" height="20" viewBox="0 0 20 20" fill="none" xmlns="http://www.w3.org/2000/svg">
<mask id="mask0_6752_2624" style="mask-type:alpha" maskUnits="userSpaceOnUse" x="0" y="0" width="20" height="20">
<rect width="20" height="20" fill="#D9D9D9"/>
</mask>
<g mask="url(#mask0_6752_2624)">
<path d="M9.62813 14.0834H10.3719V12.3044L11.7677 13.6715L12.2708 13.1684L10.3719 11.2275V10.3719H11.2227L13.1635 12.2756L13.6585 11.7725L12.2996 10.3719H14.0913V9.62815H12.2996L13.6585 8.23231L13.1635 7.72919L11.2227 9.62815H10.3719V8.77731L12.2708 6.83648L11.7677 6.34148L10.3719 7.70044V5.90877H9.62813V7.70044L8.22751 6.34148L7.72438 6.83648L9.62813 8.77731V9.62815H8.7725L6.83167 7.72919L6.32855 8.23231L7.69563 9.62815H5.91667V10.3719H7.69563L6.32855 11.7725L6.83167 12.2756L8.7725 10.3719H9.62813V11.2275L7.72438 13.1684L8.22751 13.6715L9.62813 12.3044V14.0834ZM10.0015 17.5834C8.96202 17.5834 7.98139 17.386 7.05959 16.9913C6.13778 16.5965 5.33098 16.0534 4.63917 15.3619C3.94737 14.6704 3.40396 13.8639 3.00896 12.9425C2.6141 12.0211 2.41667 11.0408 2.41667 10.0015C2.41667 8.94815 2.61403 7.96405 3.00876 7.04919C3.40348 6.13433 3.9466 5.33099 4.63813 4.63919C5.32966 3.94738 6.13612 3.40398 7.05751 3.00898C7.97889 2.61412 8.95924 2.41669 9.99855 2.41669C11.0519 2.41669 12.036 2.61405 12.9508 3.00877C13.8657 3.40349 14.669 3.94662 15.3608 4.63815C16.0526 5.32967 16.596 6.13266 16.991 7.0471C17.3859 7.96155 17.5833 8.94537 17.5833 9.99856C17.5833 11.038 17.386 12.0186 16.9913 12.9404C16.5965 13.8622 16.0534 14.669 15.3619 15.3609C14.6704 16.0527 13.8674 16.5961 12.9529 16.9911C12.0385 17.3859 11.0547 17.5834 10.0015 17.5834ZM10 16.5C11.8056 16.5 13.3403 15.8681 14.6042 14.6042C15.8681 13.3403 16.5 11.8056 16.5 10C16.5 8.19446 15.8681 6.65974 14.6042 5.39585C13.3403 4.13196 11.8056 3.50002 10 3.50002C8.19445 3.50002 6.65973 4.13196 5.39584 5.39585C4.13195 6.65974 3.50001 8.19446 3.50001 10C3.50001 11.8056 4.13195 13.3403 5.39584 14.6042C6.65973 15.8681 8.19445 16.5 10 16.5Z" fill="#0475F4"/>
</g>
</svg>
