<svg width="20" height="20" viewBox="0 0 20 20" fill="none" xmlns="http://www.w3.org/2000/svg">
<mask id="mask0_7003_374" style="mask-type:alpha" maskUnits="userSpaceOnUse" x="0" y="0" width="20" height="20">
<rect width="20" height="20" fill="#D9D9D9"/>
</mask>
<g mask="url(#mask0_7003_374)">
<path d="M15.8541 13.75L10.9791 10.625C10.868 10.5494 10.7847 10.4581 10.7291 10.351C10.6736 10.244 10.6458 10.1274 10.6458 10.0015C10.6458 9.87549 10.6736 9.75861 10.7291 9.65083C10.7847 9.54306 10.868 9.45111 10.9791 9.375L15.8541 6.25C15.9236 6.20833 15.9896 6.17708 16.0521 6.15625C16.1146 6.13542 16.1775 6.125 16.2408 6.125C16.4432 6.125 16.6203 6.19431 16.7723 6.33292C16.9241 6.47153 17 6.65424 17 6.88104V13.1181C17 13.3449 16.9241 13.5278 16.7723 13.6667C16.6203 13.8056 16.4432 13.875 16.2408 13.875C16.1775 13.875 16.1146 13.8646 16.0521 13.8438C15.9896 13.8229 15.9236 13.7917 15.8541 13.75ZM7.85415 13.75L2.97915 10.625C2.86804 10.5494 2.7847 10.4581 2.72915 10.351C2.67359 10.244 2.64581 10.1274 2.64581 10.0015C2.64581 9.87549 2.67359 9.75861 2.72915 9.65083C2.7847 9.54306 2.86804 9.45111 2.97915 9.375L7.85415 6.25C7.92359 6.20833 7.98956 6.17708 8.05206 6.15625C8.11456 6.13542 8.17748 6.125 8.24081 6.125C8.44317 6.125 8.62033 6.19431 8.77227 6.33292C8.92408 6.47153 8.99998 6.65424 8.99998 6.88104V13.1181C8.99998 13.3449 8.92408 13.5278 8.77227 13.6667C8.62033 13.8056 8.44317 13.875 8.24081 13.875C8.17748 13.875 8.11456 13.8646 8.05206 13.8438C7.98956 13.8229 7.92359 13.7917 7.85415 13.75Z" fill="white"/>
</g>
</svg>
