<svg width="24" height="24" viewBox="0 0 24 24" fill="none" xmlns="http://www.w3.org/2000/svg">
<mask id="mask0_6801_761" style="mask-type:alpha" maskUnits="userSpaceOnUse" x="0" y="0" width="24" height="24">
<rect width="24" height="24" fill="#D9D9D9"/>
</mask>
<g mask="url(#mask0_6801_761)">
<path d="M11.8945 12.9261L5.0294 19.791C4.90704 19.9135 4.75689 19.979 4.57892 19.9872C4.40117 19.9957 4.24272 19.9303 4.10358 19.791C3.96421 19.6518 3.89453 19.4975 3.89453 19.328C3.89453 19.1586 3.96421 19.0043 4.10358 18.8651L10.9684 12L4.10358 5.13487C3.98101 5.01251 3.91558 4.86235 3.90729 4.68439C3.89878 4.50664 3.96421 4.34819 4.10358 4.20904C4.24272 4.06968 4.39703 4 4.56649 4C4.73595 4 4.89025 4.06968 5.0294 4.20904L11.8945 11.0739L18.7597 4.20904C18.882 4.08647 19.0322 4.02104 19.2101 4.01276C19.3879 4.00425 19.5463 4.06968 19.6855 4.20904C19.8249 4.34819 19.8945 4.50249 19.8945 4.67195C19.8945 4.84142 19.8249 4.99572 19.6855 5.13487L12.8207 12L19.6855 18.8651C19.8081 18.9875 19.8735 19.1376 19.8818 19.3156C19.8903 19.4934 19.8249 19.6518 19.6855 19.791C19.5463 19.9303 19.392 20 19.2226 20C19.0531 20 18.8988 19.9303 18.7597 19.791L11.8945 12.9261Z" fill="#2F3139"/>
</g>
</svg>
