<svg width="24" height="24" viewBox="0 0 24 24" fill="none" xmlns="http://www.w3.org/2000/svg">
<mask id="mask0_8311_2785" style="mask-type:alpha" maskUnits="userSpaceOnUse" x="0" y="0" width="24" height="24">
<rect width="24" height="24" fill="#D9D9D9"/>
</mask>
<g mask="url(#mask0_8311_2785)">
<path d="M12.0003 22.6078L8.85983 19.5001H4.50033V15.1406L1.39258 12.0001L4.50033 8.85958V4.50008H8.85983L12.0003 1.39233L15.1408 4.50008H19.5003V8.85958L22.6081 12.0001L19.5003 15.1406V19.5001H15.1408L12.0003 22.6078ZM12.0003 16.6153C13.2747 16.6153 14.3625 16.1648 15.2638 15.2636C16.165 14.3622 16.6156 13.2744 16.6156 12.0001C16.6156 10.7258 16.1656 9.63792 15.2656 8.73658C14.3656 7.83542 13.2772 7.38483 12.0003 7.38483V16.6153ZM12.0003 20.5001L14.5003 18.0001H18.0003V14.5001L20.5003 12.0001L18.0003 9.50008V6.00008H14.5003L12.0003 3.50008L9.50033 6.00008H6.00033V9.50008L3.50033 12.0001L6.00033 14.5001V18.0001H9.50033L12.0003 20.5001Z" fill="#0475F4"/>
</g>
</svg>
