<svg width="24" height="24" viewBox="0 0 24 24" fill="none" xmlns="http://www.w3.org/2000/svg">
<mask id="mask0_7470_357" style="mask-type:alpha" maskUnits="userSpaceOnUse" x="0" y="0" width="24" height="24">
<rect width="24" height="24" fill="#D9D9D9"/>
</mask>
<g mask="url(#mask0_7470_357)">
<path d="M8.2965 20.752C7.14033 20.2533 6.13467 19.5766 5.2795 18.7218C4.42433 17.8669 3.74725 16.8617 3.24825 15.706C2.74942 14.5503 2.5 13.3156 2.5 12.0017C2.5 10.6877 2.74933 9.45267 3.248 8.2965C3.74667 7.14033 4.42342 6.13467 5.27825 5.2795C6.13308 4.42433 7.13833 3.74725 8.294 3.24825C9.44967 2.74942 10.6844 2.5 11.9983 2.5C13.3123 2.5 14.5473 2.74933 15.7035 3.248C16.8597 3.74667 17.8653 4.42342 18.7205 5.27825C19.5757 6.13308 20.2528 7.13833 20.7518 8.294C21.2506 9.44967 21.5 10.6844 21.5 11.9983C21.5 13.3123 21.2507 14.5473 20.752 15.7035C20.2533 16.8597 19.5766 17.8653 18.7218 18.7205C17.8669 19.5757 16.8617 20.2528 15.706 20.7518C14.5503 21.2506 13.3156 21.5 12.0017 21.5C10.6877 21.5 9.45267 21.2507 8.2965 20.752ZM12 20C12.975 20 13.8934 19.8382 14.7553 19.5145C15.6171 19.1907 16.3961 18.7397 17.0922 18.1615L15.3212 16.3903C14.8634 16.7403 14.3511 17.0128 13.7843 17.2078C13.2174 17.4026 12.6227 17.5 12 17.5C10.4722 17.5 9.17358 16.9655 8.10425 15.8965C7.03475 14.8275 6.5 13.5294 6.5 12.0022C6.5 10.4751 7.0345 9.17625 8.1035 8.10575C9.1725 7.03525 10.4706 6.5 11.9978 6.5C13.5249 6.5 14.8238 7.03475 15.8943 8.10425C16.9648 9.17358 17.5 10.4722 17.5 12C17.5 12.6243 17.4 13.2217 17.2 13.792C17 14.3623 16.725 14.8772 16.375 15.3365L18.1462 17.1077C18.7244 16.4116 19.1779 15.6308 19.5068 14.7655C19.8356 13.9 20 12.9782 20 12C20 9.76667 19.225 7.875 17.675 6.325C16.125 4.775 14.2333 4 12 4C9.76667 4 7.875 4.775 6.325 6.325C4.775 7.875 4 9.76667 4 12C4 14.2333 4.775 16.125 6.325 17.675C7.875 19.225 9.76667 20 12 20ZM12 16C12.4092 16 12.8044 15.9398 13.1858 15.8193C13.5671 15.6988 13.9173 15.5276 14.2365 15.3057L12.375 13.4443C12.3128 13.4689 12.2507 13.4844 12.1885 13.4908C12.1263 13.4969 12.0642 13.5 12.002 13.5C11.5917 13.5 11.2388 13.3523 10.9433 13.0568C10.6478 12.7613 10.5 12.409 10.5 12C10.5 11.591 10.6478 11.2387 10.9433 10.9432C11.2388 10.6477 11.591 10.5 12 10.5C12.409 10.5 12.7613 10.6477 13.0568 10.9432C13.3523 11.2387 13.5 11.5903 13.5 11.998C13.5 12.0722 13.4969 12.1433 13.4908 12.2113C13.4844 12.2791 13.4689 12.3439 13.4443 12.4058L15.2902 14.252C15.5121 13.9327 15.6858 13.5837 15.8115 13.2052C15.9372 12.8266 16 12.4248 16 12C16 10.9 15.6083 9.95833 14.825 9.175C14.0417 8.39167 13.1 8 12 8C10.9 8 9.95833 8.39167 9.175 9.175C8.39167 9.95833 8 10.9 8 12C8 13.1 8.39167 14.0417 9.175 14.825C9.95833 15.6083 10.9 16 12 16Z" fill="#0475F4"/>
</g>
</svg>
