<svg width="24" height="24" viewBox="0 0 24 24" fill="none" xmlns="http://www.w3.org/2000/svg">
<mask id="mask0_7003_275" style="mask-type:alpha" maskUnits="userSpaceOnUse" x="0" y="0" width="24" height="24">
<rect width="24" height="24" fill="#D9D9D9"/>
</mask>
<g mask="url(#mask0_7003_275)">
<path d="M8.7 19.8307C7.66917 19.3846 6.76792 18.7756 5.99625 18.0038C5.22442 17.2321 4.61542 16.3301 4.16925 15.2978C3.72308 14.2654 3.5 13.1662 3.5 12C3.5 11.3115 3.57692 10.6471 3.73075 10.0068C3.88458 9.36642 4.10383 8.76292 4.3885 8.19625C4.67317 7.62958 5.0155 7.103 5.4155 6.6165C5.8155 6.12983 6.26158 5.691 6.75375 5.3L13.2078 11.7537L12.1538 12.8077L6.75375 7.40775C6.24108 8.00125 5.82058 8.6785 5.49225 9.4395C5.16408 10.2003 5 11.0538 5 12C5 13.9333 5.68333 15.5833 7.05 16.95C8.41667 18.3167 10.0667 19 12 19C13.9333 19 15.5833 18.3167 16.95 16.95C18.3167 15.5833 19 13.9333 19 12C19 10.2358 18.4212 8.69192 17.2635 7.36825C16.1058 6.04458 14.6013 5.27567 12.75 5.0615V7H11.25V3.5H12C13.1662 3.5 14.2654 3.72308 15.2977 4.16925C16.3301 4.61542 17.2321 5.22442 18.0038 5.99625C18.7756 6.76792 19.3846 7.66992 19.8307 8.70225C20.2769 9.73458 20.5 10.8338 20.5 12C20.5 13.1662 20.2769 14.2654 19.8307 15.2978C19.3846 16.3301 18.7756 17.2321 18.0038 18.0038C17.2321 18.7756 16.3308 19.3846 15.3 19.8307C14.2692 20.2769 13.1692 20.5 12 20.5C10.8308 20.5 9.73083 20.2769 8.7 19.8307ZM6.36925 12.63C6.20008 12.4603 6.1155 12.2501 6.1155 11.9993C6.1155 11.7484 6.20033 11.5384 6.37 11.3692C6.53967 11.2001 6.74992 11.1155 7.00075 11.1155C7.25158 11.1155 7.46158 11.2003 7.63075 11.37C7.79992 11.5397 7.8845 11.7499 7.8845 12.0008C7.8845 12.2516 7.79967 12.4616 7.63 12.6308C7.46033 12.7999 7.25008 12.8845 6.99925 12.8845C6.74842 12.8845 6.53842 12.7997 6.36925 12.63ZM11.3692 17.63C11.2001 17.4603 11.1155 17.2501 11.1155 16.9992C11.1155 16.7484 11.2003 16.5384 11.37 16.3693C11.5397 16.2001 11.7499 16.1155 12.0008 16.1155C12.2516 16.1155 12.4616 16.2003 12.6308 16.37C12.7999 16.5397 12.8845 16.7499 12.8845 17.0008C12.8845 17.2516 12.7997 17.4616 12.63 17.6307C12.4603 17.7999 12.2501 17.8845 11.9993 17.8845C11.7484 17.8845 11.5384 17.7997 11.3692 17.63ZM16.3693 12.63C16.2001 12.4603 16.1155 12.2501 16.1155 11.9993C16.1155 11.7484 16.2003 11.5384 16.37 11.3692C16.5397 11.2001 16.7499 11.1155 17.0008 11.1155C17.2516 11.1155 17.4616 11.2003 17.6307 11.37C17.7999 11.5397 17.8845 11.7499 17.8845 12.0008C17.8845 12.2516 17.7997 12.4616 17.63 12.6308C17.4603 12.7999 17.2501 12.8845 16.9992 12.8845C16.7484 12.8845 16.5384 12.7997 16.3693 12.63Z" fill="#0475F4"/>
</g>
</svg>
