<svg width="24" height="24" viewBox="0 0 24 24" fill="none" xmlns="http://www.w3.org/2000/svg">
<mask id="mask0_7453_3480" style="mask-type:alpha" maskUnits="userSpaceOnUse" x="0" y="0" width="24" height="24">
<rect width="24" height="24" fill="#D9D9D9"/>
</mask>
<g mask="url(#mask0_7453_3480)">
<path d="M12 1C12.5521 1 12.9998 1.44791 13 2V3.25H18C19.5186 3.25 20.7498 4.48141 20.75 6V18C20.75 19.5188 19.5188 20.75 18 20.75H13V22C13 22.5523 12.5523 23 12 23C11.4477 23 11 22.5523 11 22V20.75H6C4.48122 20.75 3.25 19.5188 3.25 18V6C3.25023 4.48141 4.48136 3.25 6 3.25H11V2C11.0002 1.44791 11.4479 1 12 1ZM13 19.25H18C18.6904 19.25 19.25 18.6904 19.25 18V6C19.2498 5.30984 18.6902 4.75 18 4.75H13V19.25Z" fill="#fff"/>
</g>
</svg>
