<svg width="20" height="20" viewBox="0 0 20 20" fill="none" xmlns="http://www.w3.org/2000/svg">
<mask id="mask0_7003_356" style="mask-type:alpha" maskUnits="userSpaceOnUse" x="0" y="0" width="20" height="20">
<rect x="0.5" y="0.5" width="19" height="19" fill="#D9D9D9" stroke="#0475F4"/>
</mask>
<g mask="url(#mask0_7003_356)">
<rect x="3.5" y="4.5" width="13" height="12" rx="1.5" stroke="#0475F4"/>
<path d="M8.46842 11.7166L9.22424 12.6999L11.2649 10.0166C11.3573 9.89436 11.4623 9.83325 11.5799 9.83325C11.6974 9.83325 11.8024 9.89436 11.8948 10.0166C11.9872 10.1388 12.0333 10.2805 12.0333 10.4416C12.0333 10.6027 11.9872 10.7444 11.8948 10.8666L9.53916 13.9833C9.44678 14.1055 9.34181 14.1666 9.22424 14.1666C9.10667 14.1666 9.00169 14.1055 8.90931 13.9833L7.83858 12.5666C7.7462 12.4444 7.70001 12.3027 7.70001 12.1416C7.70001 11.9805 7.7462 11.8388 7.83858 11.7166C7.93096 11.5944 8.03593 11.5333 8.1535 11.5333C8.27107 11.5333 8.37605 11.5944 8.46842 11.7166Z" fill="#0475F4"/>
<line x1="4" y1="7.5" x2="16" y2="7.5" stroke="#0475F4"/>
<line x1="6.5" y1="4.5" x2="6.5" y2="3.5" stroke="#0475F4" stroke-linecap="round"/>
<line x1="13.5" y1="4.5" x2="13.5" y2="3.5" stroke="#0475F4" stroke-linecap="round"/>
</g>
</svg>
