<svg width="20" height="20" viewBox="0 0 20 20" fill="none" xmlns="http://www.w3.org/2000/svg">
<mask id="mask0_4916_653" style="mask-type:alpha" maskUnits="userSpaceOnUse" x="0" y="0" width="20" height="20">
<rect width="20" height="20" fill="#D9D9D9"/>
</mask>
<g mask="url(#mask0_4916_653)">
<path d="M10 10.5015L6.98734 13.4951C6.89748 13.5837 6.81942 13.6254 6.75317 13.6201C6.68692 13.6147 6.60949 13.5676 6.52088 13.479C6.43227 13.3904 6.38796 13.3103 6.38796 13.2386C6.38796 13.1671 6.43227 13.0864 6.52088 12.9965L9.49838 9.99987L6.50484 7.008C6.41623 6.91813 6.37456 6.83744 6.37984 6.76591C6.38526 6.69438 6.43227 6.61424 6.52088 6.52549C6.60949 6.43688 6.68963 6.39258 6.7613 6.39258C6.83283 6.39258 6.91352 6.43688 7.00338 6.52549L10 9.51904L12.9919 6.52549C13.0818 6.43688 13.1598 6.39258 13.2261 6.39258C13.2923 6.39258 13.3698 6.43688 13.4584 6.52549C13.5364 6.60355 13.5755 6.68098 13.5755 6.75779C13.5755 6.83473 13.5364 6.91813 13.4584 7.008L10.4809 9.99987L13.4744 13.0126C13.563 13.1024 13.6073 13.1805 13.6073 13.2467C13.6073 13.313 13.563 13.3904 13.4744 13.479C13.3964 13.5571 13.3189 13.5961 13.2421 13.5961C13.1652 13.5961 13.0818 13.5571 12.9919 13.479L10 10.5015Z" fill="#1C1B1F"/>
</g>
</svg>
