<svg width="24" height="24" viewBox="0 0 24 24" fill="none" xmlns="http://www.w3.org/2000/svg">
<mask id="mask0_7003_265" style="mask-type:alpha" maskUnits="userSpaceOnUse" x="0" y="0" width="24" height="24">
<rect width="24" height="24" fill="#D9D9D9"/>
</mask>
<g mask="url(#mask0_7003_265)">
<path d="M17.5 4.34624C18.6153 5.36024 19.4358 6.26633 19.9615 7.06449C20.4872 7.86249 20.75 8.60766 20.75 9.29999C20.75 10.2358 20.4391 11.0448 19.8173 11.727C19.1954 12.409 18.423 12.75 17.5 12.75C16.577 12.75 15.8046 12.4086 15.1827 11.7257C14.5609 11.0429 14.25 10.2359 14.25 9.30474C14.25 8.65291 14.5279 7.90358 15.0837 7.05674C15.6394 6.20991 16.4448 5.30641 17.5 4.34624ZM17.5 6.40949C16.9538 6.99549 16.5256 7.54324 16.2153 8.05274C15.9051 8.56241 15.75 8.97941 15.75 9.30374C15.75 9.81891 15.9151 10.2721 16.2452 10.6632C16.5756 11.0544 16.9932 11.25 17.4983 11.25C18.0033 11.25 18.4215 11.0544 18.753 10.6632C19.0843 10.2721 19.25 9.81891 19.25 9.30374C19.25 8.97941 19.0949 8.56241 18.7848 8.05274C18.4744 7.54324 18.0462 6.99549 17.5 6.40949ZM11.9983 21.5C9.85708 21.5 8.07208 20.7644 6.64325 19.2932C5.21442 17.8221 4.5 15.991 4.5 13.8C4.5 12.2487 5.12083 10.5483 6.3625 8.69899C7.60417 6.84966 9.48333 4.83466 12 2.65399C12.8487 3.39499 13.624 4.11366 14.326 4.80999C15.0278 5.50649 15.6596 6.18716 16.2212 6.85199C16.1366 6.96349 15.978 7.17091 15.7455 7.47424C15.513 7.77774 15.3645 7.97799 15.3 8.07499C14.85 7.54166 14.3542 6.98749 13.8125 6.41249C13.2708 5.83749 12.6667 5.24999 12 4.64999C10.0167 6.46666 8.52083 8.14166 7.5125 9.67499C6.50417 11.2083 6 12.5833 6 13.8C6 15.5833 6.56667 17.0625 7.7 18.2375C8.83333 19.4125 10.2667 20 12 20C12.8667 20 13.6667 19.8417 14.4 19.525C15.1333 19.2083 15.7667 18.775 16.3 18.225C16.8333 17.675 17.25 17.0208 17.55 16.2625C17.85 15.5042 18 14.6833 18 13.8C18 13.5167 17.9708 13.2167 17.9125 12.9C17.8542 12.5833 17.7667 12.2583 17.65 11.925C17.761 11.8585 17.9799 11.7322 18.3068 11.5462C18.6336 11.3601 18.8525 11.2337 18.9635 11.1672C19.1403 11.6249 19.274 12.0739 19.3645 12.5142C19.4548 12.9544 19.5 13.383 19.5 13.8C19.5 15.991 18.785 17.8221 17.355 19.2932C15.925 20.7644 14.1394 21.5 11.9983 21.5ZM12.2463 18.8462C12.4206 18.8296 12.5642 18.7643 12.677 18.6505C12.7898 18.5367 12.8462 18.3994 12.8462 18.2387C12.8462 18.0514 12.7847 17.9029 12.6617 17.7932C12.5387 17.6836 12.3817 17.6371 12.1905 17.6537C11.5072 17.7037 10.7629 17.5035 9.95775 17.053C9.15258 16.6023 8.65 15.8187 8.45 14.702C8.41667 14.5315 8.34517 14.3975 8.2355 14.3C8.126 14.2025 7.99558 14.1537 7.84425 14.1537C7.66225 14.1537 7.51067 14.2221 7.3895 14.3587C7.26833 14.4952 7.2295 14.6705 7.273 14.8845C7.5435 16.3372 8.19742 17.3757 9.23475 18C10.2719 18.6243 11.2758 18.9064 12.2463 18.8462Z" fill="#0475F4"/>
</g>
</svg>
