<svg width="32" height="32" viewBox="0 0 32 32" fill="none" xmlns="http://www.w3.org/2000/svg">
<mask id="mask0_7456_6793" style="mask-type:alpha" maskUnits="userSpaceOnUse" x="0" y="0" width="32" height="32">
<rect width="32" height="32" fill="#D9D9D9"/>
</mask>
<g mask="url(#mask0_7456_6793)">
<path d="M13.9385 16L19.3695 21.4307C19.554 21.6153 19.6484 21.8474 19.6529 22.127C19.6571 22.4063 19.5626 22.6427 19.3695 22.836C19.1762 23.0291 18.942 23.1257 18.6669 23.1257C18.3917 23.1257 18.1575 23.0291 17.9642 22.836L11.9719 16.8437C11.8472 16.7188 11.7592 16.5871 11.7079 16.4487C11.6565 16.3102 11.6309 16.1607 11.6309 16C11.6309 15.8393 11.6565 15.6898 11.7079 15.5513C11.7592 15.4129 11.8472 15.2812 11.9719 15.1563L17.9642 9.16399C18.1489 8.97955 18.381 8.8851 18.6605 8.88066C18.9399 8.87644 19.1762 8.97088 19.3695 9.16399C19.5626 9.35733 19.6592 9.59155 19.6592 9.86666C19.6592 10.1418 19.5626 10.376 19.3695 10.5693L13.9385 16Z" fill="#19213D"/>
</g>
</svg>
