<svg width="20" height="20" viewBox="0 0 20 20" fill="none" xmlns="http://www.w3.org/2000/svg">
<mask id="mask0_6752_2618" style="mask-type:alpha" maskUnits="userSpaceOnUse" x="0" y="0" width="20" height="20">
<rect width="20" height="20" fill="#D9D9D9"/>
</mask>
<g mask="url(#mask0_6752_2618)">
<path d="M13.6311 4.62316C14.4456 5.34516 15.044 5.99638 15.4264 6.5768C15.8088 7.1571 16 7.69919 16 8.20306C16 8.88473 15.7715 9.46755 15.3144 9.95151C14.8573 10.4354 14.2962 10.6773 13.6311 10.6773C12.966 10.6773 12.4049 10.435 11.9478 9.95054C11.4907 9.46606 11.2621 8.88163 11.2621 8.19725C11.2621 7.71819 11.4586 7.18251 11.8515 6.59019C12.2442 5.99787 12.8374 5.34219 13.6311 4.62316ZM13.6311 5.99108C13.2198 6.44569 12.8904 6.8674 12.6429 7.25621C12.3955 7.64514 12.2718 7.96153 12.2718 8.20539C12.2718 8.59277 12.4001 8.93354 12.6565 9.2277C12.9131 9.52172 13.2375 9.66874 13.6297 9.66874C14.0219 9.66874 14.3468 9.52172 14.6043 9.2277C14.8616 8.93354 14.9903 8.59277 14.9903 8.20539C14.9903 7.96153 14.8666 7.64191 14.6192 7.24651C14.3717 6.85124 14.0423 6.43277 13.6311 5.99108ZM9.66854 17C8.09612 17 6.75825 16.4487 5.65495 15.3462C4.55165 14.2437 4 12.9072 4 11.3367C4 10.172 4.44984 8.93367 5.34951 7.6218C6.24919 6.30993 7.68932 4.76933 9.6699 3C10.3679 3.63951 10.9863 4.23584 11.525 4.78898C12.0637 5.34226 12.5447 5.87678 12.968 6.39255C12.9281 6.46612 12.834 6.61087 12.6858 6.8268C12.5376 7.04286 12.4384 7.18852 12.3883 7.26377C12.0388 6.85001 11.6408 6.4007 11.1942 5.91583C10.7476 5.43095 10.2395 4.90406 9.6699 4.33514C7.96117 6.02896 6.75728 7.39954 6.05825 8.44686C5.35922 9.49418 5.00971 10.4583 5.00971 11.3392C5.00971 12.6305 5.46278 13.7287 6.36893 14.6338C7.27508 15.5389 8.3754 15.9915 9.6699 15.9915C10.3172 15.9915 10.9223 15.8686 11.4854 15.623C12.0485 15.3773 12.5405 15.0444 12.9612 14.6241C13.3819 14.2039 13.7152 13.7093 13.9612 13.1404C14.2071 12.5715 14.3301 11.9703 14.3301 11.3367C14.3301 11.1169 14.3107 10.9035 14.2718 10.6967C14.233 10.4898 14.1748 10.27 14.0971 10.0372C14.1702 9.99082 14.3144 9.90257 14.5295 9.7725C14.7447 9.64242 14.8888 9.55411 14.9619 9.50756C15.0993 9.83676 15.1966 10.1495 15.254 10.4459C15.3112 10.7421 15.3398 11.0394 15.3398 11.3379C15.3398 12.9076 14.7877 14.2437 13.6835 15.3462C12.5793 16.4487 11.241 17 9.66854 17ZM10.1913 14.9024C10.2784 14.8921 10.3487 14.854 10.4021 14.7882C10.4557 14.7224 10.4825 14.6431 10.4825 14.5502C10.4825 14.4419 10.4412 14.3549 10.3586 14.2892C10.2761 14.2235 10.1799 14.2036 10.0703 14.2294C9.31948 14.3329 8.61521 14.1484 7.95748 13.6761C7.29974 13.2036 6.91262 12.5795 6.79612 11.8037C6.78317 11.6973 6.74589 11.6128 6.68427 11.55C6.62278 11.4873 6.54854 11.456 6.46155 11.456C6.35903 11.456 6.27042 11.4928 6.19573 11.5665C6.12104 11.6401 6.09411 11.7405 6.11495 11.8677C6.24738 12.8266 6.71644 13.6064 7.52214 14.2071C8.3277 14.8079 9.21741 15.0396 10.1913 14.9024Z" fill="#0475F4"/>
</g>
</svg>
