<svg width="20" height="20" viewBox="0 0 20 20" fill="none" xmlns="http://www.w3.org/2000/svg">
<path d="M10 18C14.3765 18 18 14.3687 18 10C18 5.62354 14.3687 2 9.99217 2C5.62353 2 2 5.62354 2 10C2 14.3687 5.63138 18 10 18ZM10 16.6667C6.29805 16.6667 3.34118 13.702 3.34118 10C3.34118 6.29805 6.29021 3.33334 9.99217 3.33334C13.6942 3.33334 16.6667 6.29805 16.6667 10C16.6667 13.702 13.702 16.6667 10 16.6667Z" fill="#0475F4"/>
<path d="M8.72944 11.2079C9.23923 11.7176 9.97651 11.7176 10.4941 11.2079C10.5882 11.1138 10.7373 10.902 10.8314 10.7765L13.4667 6.97256C13.6 6.78433 13.5608 6.60393 13.451 6.48628C13.3334 6.37648 13.1451 6.33727 12.9569 6.46276L9.15296 9.10591C9.02747 9.19218 8.82354 9.34123 8.72944 9.43533C8.21178 9.95295 8.21178 10.6902 8.72944 11.2079ZM6.80785 13.8275C7.17649 13.8275 7.48237 13.5216 7.48237 13.153C7.48237 12.7843 7.17649 12.4784 6.80785 12.4784C6.43922 12.4784 6.13334 12.7843 6.13334 13.153C6.13334 13.5216 6.43922 13.8275 6.80785 13.8275ZM5.48236 10.6745C5.85099 10.6745 6.15687 10.3686 6.15687 10C6.15687 9.63136 5.85099 9.3255 5.48236 9.3255C5.11373 9.3255 4.80785 9.63136 4.80785 10C4.80785 10.3686 5.11373 10.6745 5.48236 10.6745ZM6.80785 7.52158C7.17649 7.52158 7.48237 7.2157 7.48237 6.84707C7.48237 6.4706 7.17649 6.17256 6.80785 6.17256C6.43922 6.17256 6.13334 6.4706 6.13334 6.84707C6.13334 7.2157 6.43922 7.52158 6.80785 7.52158ZM9.99217 6.17256C10.3608 6.17256 10.6667 5.86667 10.6667 5.49804C10.6667 5.12942 10.3608 4.82354 9.99217 4.82354C9.62353 4.82354 9.31767 5.12942 9.31767 5.49804C9.31767 5.86667 9.62353 6.17256 9.99217 6.17256ZM14.4863 10.6745C14.8549 10.6745 15.1608 10.3686 15.1608 10C15.1608 9.63136 14.8549 9.3255 14.4863 9.3255C14.1177 9.3255 13.8118 9.63136 13.8118 10C13.8118 10.3686 14.1177 10.6745 14.4863 10.6745ZM13.1608 13.8275C13.5295 13.8275 13.8353 13.5216 13.8353 13.153C13.8353 12.7843 13.5295 12.4784 13.1608 12.4784C12.7922 12.4784 12.4863 12.7843 12.4863 13.153C12.4863 13.5216 12.7922 13.8275 13.1608 13.8275Z" fill="#0475F4"/>
</svg>
