<svg width="24" height="24" viewBox="0 0 24 24" fill="none" xmlns="http://www.w3.org/2000/svg">
<mask id="mask0_7470_349" style="mask-type:alpha" maskUnits="userSpaceOnUse" x="0" y="0" width="24" height="24">
<rect width="24" height="24" fill="#D9D9D9"/>
</mask>
<g mask="url(#mask0_7470_349)">
<path d="M6.64325 19.2943C5.21442 17.8238 4.5 15.9923 4.5 13.8H6C6 15.5833 6.56667 17.0625 7.7 18.2375C8.83333 19.4125 10.2667 20 12 20C13.7333 20 15.1667 19.4125 16.3 18.2375C17.4333 17.0625 18 15.5833 18 13.8H19.5C19.5 15.9923 18.7856 17.8238 17.3568 19.2943C15.9279 20.7648 14.1423 21.5 12 21.5C9.85767 21.5 8.07208 20.7648 6.64325 19.2943ZM4.75875 11.9145C4.58625 11.742 4.5 11.5333 4.5 11.2885C4.5 11.0437 4.58625 10.835 4.75875 10.6625C4.93108 10.4902 5.13975 10.404 5.38475 10.404C5.62958 10.404 5.83817 10.4902 6.0105 10.6625C6.183 10.835 6.26925 11.0437 6.26925 11.2885C6.26925 11.5333 6.183 11.742 6.0105 11.9145C5.83817 12.0868 5.62958 12.173 5.38475 12.173C5.13975 12.173 4.93108 12.0868 4.75875 11.9145ZM9.06625 11.9145C8.89392 11.742 8.80775 11.5333 8.80775 11.2885C8.80775 11.0437 8.89392 10.835 9.06625 10.6625C9.23875 10.4902 9.44742 10.404 9.69225 10.404C9.93725 10.404 10.1459 10.4902 10.3183 10.6625C10.4908 10.835 10.577 11.0437 10.577 11.2885C10.577 11.5333 10.4908 11.742 10.3183 11.9145C10.1459 12.0868 9.93725 12.173 9.69225 12.173C9.44742 12.173 9.23875 12.0868 9.06625 11.9145ZM13.6818 11.9145C13.5093 11.742 13.423 11.5333 13.423 11.2885C13.423 11.0437 13.5093 10.835 13.6818 10.6625C13.8541 10.4902 14.0627 10.404 14.3077 10.404C14.5526 10.404 14.7612 10.4902 14.9337 10.6625C15.1061 10.835 15.1923 11.0437 15.1923 11.2885C15.1923 11.5333 15.1061 11.742 14.9337 11.9145C14.7612 12.0868 14.5526 12.173 14.3077 12.173C14.0627 12.173 13.8541 12.0868 13.6818 11.9145ZM17.9895 11.9145C17.817 11.742 17.7308 11.5333 17.7308 11.2885C17.7308 11.0437 17.817 10.835 17.9895 10.6625C18.1618 10.4902 18.3704 10.404 18.6152 10.404C18.8602 10.404 19.0689 10.4902 19.2413 10.6625C19.4138 10.835 19.5 11.0437 19.5 11.2885C19.5 11.5333 19.4138 11.742 19.2413 11.9145C19.0689 12.0868 18.8602 12.173 18.6152 12.173C18.3704 12.173 18.1618 12.0868 17.9895 11.9145ZM6.9125 9.26051C6.74017 9.08818 6.654 8.87959 6.654 8.63476C6.654 8.38976 6.74017 8.18109 6.9125 8.00876C7.085 7.83626 7.29367 7.75001 7.5385 7.75001C7.78333 7.75001 7.992 7.83626 8.1645 8.00876C8.33683 8.18109 8.423 8.38976 8.423 8.63476C8.423 8.87959 8.33683 9.08818 8.1645 9.26051C7.992 9.43301 7.78333 9.51926 7.5385 9.51926C7.29367 9.51926 7.085 9.43301 6.9125 9.26051ZM15.8355 9.26051C15.6632 9.08818 15.577 8.87959 15.577 8.63476C15.577 8.38976 15.6632 8.18109 15.8355 8.00876C16.008 7.83626 16.2167 7.75001 16.4615 7.75001C16.7063 7.75001 16.915 7.83626 17.0875 8.00876C17.2598 8.18109 17.346 8.38976 17.346 8.63476C17.346 8.87959 17.2598 9.08818 17.0875 9.26051C16.915 9.43301 16.7063 9.51926 16.4615 9.51926C16.2167 9.51926 16.008 9.43301 15.8355 9.26051ZM11.374 9.10676C11.2017 8.93426 11.1155 8.72559 11.1155 8.48076C11.1155 8.23593 11.2017 8.02726 11.374 7.85476C11.5465 7.68243 11.7552 7.59626 12 7.59626C12.2448 7.59626 12.4535 7.68243 12.626 7.85476C12.7983 8.02726 12.8845 8.23593 12.8845 8.48076C12.8845 8.72559 12.7983 8.93426 12.626 9.10676C12.4535 9.27926 12.2448 9.36551 12 9.36551C11.7552 9.36551 11.5465 9.27926 11.374 9.10676ZM9.06625 6.60676C8.89392 6.43426 8.80775 6.22559 8.80775 5.98076C8.80775 5.73593 8.89392 5.52726 9.06625 5.35476C9.23875 5.18243 9.44742 5.09626 9.69225 5.09626C9.93725 5.09626 10.1459 5.18243 10.3183 5.35476C10.4908 5.52726 10.577 5.73593 10.577 5.98076C10.577 6.22559 10.4908 6.43426 10.3183 6.60676C10.1459 6.77926 9.93725 6.86551 9.69225 6.86551C9.44742 6.86551 9.23875 6.77926 9.06625 6.60676ZM13.6818 6.60676C13.5093 6.43426 13.423 6.22559 13.423 5.98076C13.423 5.73593 13.5093 5.52726 13.6818 5.35476C13.8541 5.18243 14.0627 5.09626 14.3077 5.09626C14.5526 5.09626 14.7612 5.18243 14.9337 5.35476C15.1061 5.52726 15.1923 5.73593 15.1923 5.98076C15.1923 6.22559 15.1061 6.43426 14.9337 6.60676C14.7612 6.77926 14.5526 6.86551 14.3077 6.86551C14.0627 6.86551 13.8541 6.77926 13.6818 6.60676ZM11.374 4.20301C11.2017 4.03051 11.1155 3.82184 11.1155 3.57701C11.1155 3.33218 11.2017 3.12351 11.374 2.95101C11.5465 2.77851 11.7552 2.69226 12 2.69226C12.2448 2.69226 12.4535 2.77851 12.626 2.95101C12.7983 3.12351 12.8845 3.33218 12.8845 3.57701C12.8845 3.82184 12.7983 4.03051 12.626 4.20301C12.4535 4.37534 12.2448 4.46151 12 4.46151C11.7552 4.46151 11.5465 4.37534 11.374 4.20301Z" fill="#0475F4"/>
</g>
</svg>
