<svg width="20" height="20" viewBox="0 0 20 20" fill="none" xmlns="http://www.w3.org/2000/svg">
<mask id="mask0_7044_1071" style="mask-type:alpha" maskUnits="userSpaceOnUse" x="0" y="0" width="20" height="20">
<rect width="20" height="20" fill="#D9D9D9"/>
</mask>
<g mask="url(#mask0_7044_1071)">
<path d="M9.99935 10.5625L8.02018 8.58329C7.8674 8.43051 7.67643 8.35413 7.44727 8.35413C7.2181 8.35413 7.02018 8.43051 6.85352 8.58329C6.68685 8.74996 6.60352 8.94788 6.60352 9.17704C6.60352 9.40621 6.68685 9.60413 6.85352 9.77079L9.41602 12.3333C9.58268 12.5 9.77713 12.5833 9.99935 12.5833C10.2216 12.5833 10.416 12.5 10.5827 12.3333L13.166 9.74996C13.3327 9.58329 13.4125 9.38885 13.4056 9.16663C13.3987 8.9444 13.3118 8.74996 13.1452 8.58329C12.9785 8.43051 12.7841 8.35065 12.5618 8.34371C12.3396 8.33676 12.1452 8.41663 11.9785 8.58329L9.99935 10.5625ZM9.99935 18.3333C8.84657 18.3333 7.76324 18.1145 6.74935 17.677C5.73546 17.2395 4.85352 16.6458 4.10352 15.8958C3.35352 15.1458 2.75977 14.2638 2.32227 13.25C1.88477 12.2361 1.66602 11.1527 1.66602 9.99996C1.66602 8.84718 1.88477 7.76385 2.32227 6.74996C2.75977 5.73607 3.35352 4.85413 4.10352 4.10413C4.85352 3.35413 5.73546 2.76038 6.74935 2.32288C7.76324 1.88538 8.84657 1.66663 9.99935 1.66663C11.1521 1.66663 12.2355 1.88538 13.2493 2.32288C14.2632 2.76038 15.1452 3.35413 15.8952 4.10413C16.6452 4.85413 17.2389 5.73607 17.6764 6.74996C18.1139 7.76385 18.3327 8.84718 18.3327 9.99996C18.3327 11.1527 18.1139 12.2361 17.6764 13.25C17.2389 14.2638 16.6452 15.1458 15.8952 15.8958C15.1452 16.6458 14.2632 17.2395 13.2493 17.677C12.2355 18.1145 11.1521 18.3333 9.99935 18.3333ZM9.99935 16.6666C11.8605 16.6666 13.4368 16.0208 14.7285 14.7291C16.0202 13.4375 16.666 11.8611 16.666 9.99996C16.666 8.13885 16.0202 6.56246 14.7285 5.27079C13.4368 3.97913 11.8605 3.33329 9.99935 3.33329C8.13824 3.33329 6.56185 3.97913 5.27018 5.27079C3.97852 6.56246 3.33268 8.13885 3.33268 9.99996C3.33268 11.8611 3.97852 13.4375 5.27018 14.7291C6.56185 16.0208 8.13824 16.6666 9.99935 16.6666Z" fill="#19213D"/>
</g>
</svg>
