<svg width="20" height="20" viewBox="0 0 20 20" fill="none" xmlns="http://www.w3.org/2000/svg">
<mask id="mask0_7003_128" style="mask-type:alpha" maskUnits="userSpaceOnUse" x="0" y="0" width="20" height="20">
<rect width="20" height="20" fill="#D9D9D9"/>
</mask>
<g mask="url(#mask0_7003_128)">
<path d="M10.0001 9.06252L6.58341 12.4792C6.43064 12.632 6.25355 12.7084 6.05216 12.7084C5.85078 12.7084 5.67369 12.632 5.52091 12.4792C5.36814 12.3264 5.29175 12.1493 5.29175 11.9479C5.29175 11.7465 5.36814 11.5695 5.52091 11.4167L9.47925 7.45835C9.63203 7.30558 9.80564 7.22919 10.0001 7.22919C10.1945 7.22919 10.3681 7.30558 10.5209 7.45835L14.4792 11.4167C14.632 11.5695 14.7084 11.7431 14.7084 11.9375C14.7084 12.132 14.632 12.3056 14.4792 12.4584C14.3265 12.6111 14.1494 12.6875 13.948 12.6875C13.7466 12.6875 13.5695 12.6111 13.4167 12.4584L10.0001 9.06252Z" fill="white"/>
</g>
</svg>
