<svg width="24" height="24" viewBox="0 0 24 24" fill="none" xmlns="http://www.w3.org/2000/svg">
<mask id="mask0_7477_98" style="mask-type:alpha" maskUnits="userSpaceOnUse" x="0" y="0" width="24" height="24">
<rect x="0.5" y="0.5" width="23" height="23" fill="#D9D9D9" stroke="#19213D"/>
</mask>
<g mask="url(#mask0_7477_98)">
<mask id="path-2-inside-1_7477_98" fill="#1C1B1F">
<path d="M21.8634 10.4182C21.8634 10.4182 21.8634 10.3818 21.8634 10.3545C21.0619 5.61818 16.9545 2 11.9818 2C10.4973 2 9.09472 2.32727 7.82878 2.90909H7.76503C7.76503 2.90909 7.69217 2.92727 7.66485 2.95455L7.59199 3.02727C7.06375 3.28182 6.57195 3.58182 6.10747 3.92727C5.35155 4.48182 4.6776 5.13636 4.09472 5.87273C3.66667 6.42727 3.29326 7.02727 2.98361 7.66364C2.90164 7.84545 2.81056 8.01818 2.7377 8.2C2.59199 8.54545 2.47359 8.90909 2.37341 9.27273C2.37341 9.28182 2.37341 9.29091 2.37341 9.3C2.30055 9.57273 2.22769 9.84545 2.17304 10.1273C2.15483 10.2091 2.14572 10.2909 2.13661 10.3727C2.10018 10.5909 2.06375 10.8091 2.04554 11.0364C2.01821 11.3545 2 11.6727 2 12C2 12.4182 2.03643 12.8273 2.08197 13.2364H2.04554C2.34608 15.6727 3.53005 17.8364 5.26047 19.4C5.47905 19.6 5.71585 19.7909 5.95264 19.9727C7.62842 21.2364 9.71403 22 11.9818 22C17.5191 22 22 17.5273 22 12C22 11.4545 21.9454 10.9364 21.8634 10.4182ZM3.23862 14.5364H3.60291C3.60291 14.5364 3.67577 14.5545 3.7031 14.5818C3.73953 14.6182 3.79417 14.6727 3.8306 14.7091C3.85792 14.7364 3.89435 14.7545 3.93078 14.7545H4.03097C4.03097 14.7545 4.10383 14.7727 4.13115 14.8C4.22222 14.8909 4.42259 15.0909 4.50455 15.1727C4.53188 15.2 4.56831 15.2182 4.60474 15.2182H4.77778C4.77778 15.2182 4.85064 15.2364 4.87796 15.2636C4.90528 15.2909 4.9235 15.3273 4.9235 15.3636V15.5364C4.9235 15.5364 4.90528 15.6091 4.87796 15.6364C4.83242 15.6818 4.74135 15.7727 4.69581 15.8182C4.66849 15.8455 4.65027 15.8818 4.65027 15.9182V16.3909C4.65027 16.3909 4.66849 16.4636 4.69581 16.4909C4.84153 16.6364 5.32423 17.1182 5.46995 17.2545C5.49727 17.2818 5.51548 17.3182 5.51548 17.3545V18.4091C4.45902 17.3455 3.66667 16.0182 3.23862 14.5455V14.5364ZM11.9818 21.0909C9.85064 21.0909 7.88342 20.3455 6.33516 19.1182L7.9745 17.4818C7.9745 17.4818 8.02004 17.4182 8.02004 17.3818V16.9455C8.02004 16.9455 8.03825 16.8727 8.06557 16.8455C8.12933 16.7818 8.23862 16.6727 8.30237 16.6091C8.32969 16.5818 8.34791 16.5455 8.34791 16.5091V16.3909C8.34791 16.3909 8.32969 16.3182 8.30237 16.2909C8.23862 16.2273 8.12933 16.1182 8.06557 16.0545C8.03825 16.0273 8.00182 16.0091 7.96539 16.0091H7.50091C7.50091 16.0091 7.42805 15.9909 7.40073 15.9636L6.34426 14.9091C6.34426 14.9091 6.28051 14.8636 6.24408 14.8636H5.35155C5.35155 14.8636 5.27869 14.8818 5.25137 14.9091C5.24226 14.9182 5.22404 14.9364 5.21494 14.9455C5.18761 14.9727 5.15118 14.9909 5.11475 14.9909H4.76867C4.76867 14.9909 4.69581 14.9727 4.66849 14.9455C4.55009 14.8273 4.20401 14.4818 4.08561 14.3636C4.05829 14.3364 4.02186 14.3182 3.98543 14.3182H3.63024C3.63024 14.3182 3.55738 14.3 3.53005 14.2727C3.49362 14.2364 3.43898 14.1818 3.40255 14.1455C3.37523 14.1182 3.35701 14.0818 3.35701 14.0455V13.6727C3.35701 13.6727 3.37523 13.6 3.40255 13.5727L3.63934 13.3364C3.63934 13.3364 3.7031 13.2909 3.73953 13.2909H4.39526C4.39526 13.2909 4.46812 13.3091 4.49545 13.3364C4.52277 13.3636 4.54098 13.4 4.54098 13.4364V13.4818C4.54098 13.4818 4.54098 13.5 4.55009 13.5091C4.58652 13.5455 4.63206 13.5545 4.6776 13.5364C4.72313 13.5182 4.75046 13.4727 4.75046 13.4273V13.2273C4.75046 13.2273 4.76867 13.1545 4.79599 13.1273C4.85064 13.0727 4.95993 12.9636 5.01457 12.9091C5.04189 12.8818 5.06011 12.8455 5.06011 12.8091V12.6545C5.06011 12.6545 5.07832 12.5818 5.10565 12.5545C5.26047 12.4 5.80692 11.8545 5.96175 11.7C5.98907 11.6727 6.00729 11.6364 6.00729 11.6V11.3364C6.00729 11.2545 6.07104 11.1909 6.15301 11.1909H6.41712C6.41712 11.1909 6.48998 11.1727 6.5173 11.1455C6.55373 11.1091 6.60838 11.0545 6.64481 11.0182C6.67213 10.9909 6.69035 10.9545 6.69035 10.9182C6.69035 10.9182 6.68124 10.8545 6.65392 10.8273C6.59016 10.7636 6.45355 10.6182 6.38069 10.5545C6.35337 10.5273 6.33516 10.4909 6.33516 10.4545V10.1727C6.33516 10.1727 6.31694 10.1 6.28962 10.0727L6.13479 9.91818C6.13479 9.91818 6.07104 9.87273 6.03461 9.87273C5.99818 9.87273 5.96175 9.89091 5.93443 9.91818C5.9071 9.94545 5.87067 9.96364 5.83424 9.96364C5.79781 9.96364 5.76138 9.94545 5.73406 9.91818C5.61566 9.8 5.42441 9.60909 5.33333 9.51818C5.30601 9.49091 5.26958 9.47273 5.23315 9.47273H4.98725C4.90528 9.47273 4.84153 9.53636 4.84153 9.61818V10.8C4.84153 10.8 4.82332 10.8727 4.79599 10.9C4.76867 10.9273 4.73224 10.9455 4.69581 10.9455H4.59563C4.59563 10.9455 4.52277 10.9273 4.49545 10.9C4.34062 10.7455 3.82149 10.2273 3.67577 10.0818C3.64845 10.0545 3.63024 10.0182 3.63024 9.98182V9.74546C3.63024 9.74546 3.64845 9.67273 3.67577 9.64545C3.78506 9.53636 4.0674 9.25455 4.17669 9.14545C4.20401 9.11818 4.22222 9.08182 4.22222 9.04545V8.55455C4.22222 8.55455 4.20401 8.48182 4.17669 8.45455L3.89435 8.17273C3.89435 8.17273 3.80328 8.13636 3.75774 8.14545C3.86703 7.91818 3.97632 7.69091 4.10383 7.48182C4.4408 7.81818 4.84153 8.21818 4.96903 8.34545C4.99636 8.37273 5.01457 8.40909 5.01457 8.44546V8.62727C5.01457 8.62727 5.03279 8.7 5.06011 8.72727C5.22404 8.89091 5.85246 9.51818 5.85246 9.51818C5.85246 9.51818 6.03461 9.33636 6.11658 9.25455C6.1439 9.22727 6.16211 9.19091 6.16211 9.15455V8.70909C6.16211 8.70909 6.1439 8.63636 6.11658 8.60909C6.05282 8.54545 5.95264 8.44545 5.88889 8.38182C5.86157 8.35455 5.84335 8.31818 5.84335 8.28182V7.96364C5.84335 7.96364 5.82514 7.89091 5.79781 7.86364C5.64299 7.70909 5.12386 7.19091 4.96903 7.03636C4.94171 7.00909 4.90528 6.99091 4.86885 6.99091H4.41348C4.54098 6.8 4.66849 6.62727 4.8051 6.44545C4.82332 6.44545 4.84153 6.46364 4.85975 6.45455C4.91439 6.43636 4.95082 6.38182 4.95082 6.32727V6.26364C5.16029 6.00909 5.37887 5.76364 5.60656 5.53636V5.9C5.60656 5.9 5.62477 5.97273 5.6521 6C5.85246 6.2 6.68124 7.02727 6.8725 7.21818C6.89982 7.24545 6.91803 7.28182 6.91803 7.31818V9.01818C6.91803 9.01818 6.93625 9.09091 6.96357 9.11818L7.51002 9.66364C7.51002 9.66364 7.6102 9.71818 7.66485 9.69091C7.71949 9.67273 7.75592 9.61818 7.75592 9.56364V9.31818C7.75592 9.31818 7.77413 9.24545 7.80146 9.21818C8.03825 8.98182 9.21312 7.80909 9.44991 7.57273C9.47723 7.54545 9.49545 7.50909 9.49545 7.47273V5.33636C9.49545 5.33636 9.51366 5.26364 9.54098 5.23636C9.64117 5.13636 9.90528 4.87273 10.0055 4.77273C10.0328 4.74545 10.051 4.70909 10.051 4.67273V4.1C10.051 4.1 10.0328 4.02727 10.0055 4C9.97814 3.97273 9.94171 3.95455 9.90528 3.95455H9.52277C9.52277 3.95455 9.44991 3.93636 9.42259 3.90909C9.39526 3.88182 9.37705 3.84545 9.37705 3.80909V3.28182C10.224 3.02727 11.1166 2.88182 12.0455 2.88182C14.7869 2.88182 17.2459 4.10909 18.9217 6.02727C18.8944 6.02727 18.867 6.03636 18.8488 6.06364C18.6576 6.25455 17.847 7.06364 17.6466 7.26364C17.6193 7.29091 17.5829 7.30909 17.5464 7.30909H16.6812C16.6812 7.30909 16.6084 7.32727 16.5811 7.35455L15.6521 8.28182C15.6521 8.28182 15.5883 8.32727 15.5519 8.32727H14.2313C14.2313 8.32727 14.1585 8.30909 14.1311 8.28182C14.031 8.18182 13.776 7.92727 13.6758 7.82727C13.6485 7.8 13.612 7.78182 13.5756 7.78182H13.1566C13.1566 7.78182 13.0838 7.8 13.0565 7.82727L11.6903 9.19091C11.6903 9.19091 11.6448 9.25455 11.6448 9.29091V9.8C11.6448 9.8 11.663 9.87273 11.6903 9.9C11.7905 10 12.0455 10.2545 12.1913 10.4C12.2459 10.4545 12.337 10.4545 12.3916 10.4C12.4736 10.3182 12.5738 10.2182 12.6375 10.1545C12.6648 10.1273 12.6831 10.0909 12.6831 10.0545V9.4C12.6831 9.4 12.7013 9.32727 12.7286 9.3C12.8106 9.21818 13.0018 9.02727 13.0474 8.98182C13.0474 8.98182 13.0656 8.97273 13.0747 8.97273C13.1111 8.97273 13.1384 8.99091 13.1475 9.02727C13.1566 9.05455 13.1475 9.09091 13.1293 9.11818C13.0656 9.18182 12.9927 9.25455 12.9563 9.3C12.929 9.32727 12.9107 9.36364 12.9107 9.4V9.57273C12.9107 9.57273 12.929 9.64545 12.9563 9.67273C12.9836 9.7 13.02 9.73636 13.0474 9.76364C13.0747 9.79091 13.0929 9.82727 13.0929 9.86364V10.3C13.0929 10.3 13.0747 10.3727 13.0474 10.4C12.9654 10.4818 12.8015 10.6455 12.7286 10.7182C12.7013 10.7455 12.6648 10.7636 12.6284 10.7636H11.8087C11.8087 10.7636 11.7359 10.7818 11.7086 10.8091C11.5902 10.9273 11.2441 11.2727 11.1257 11.3909C11.0984 11.4182 11.0801 11.4545 11.0801 11.4909V11.8545C11.0801 11.8545 11.0619 11.9273 11.0346 11.9545C11.0073 11.9818 10.9709 12 10.9344 12H10.6521C10.6521 12 10.5792 12.0182 10.5519 12.0455C10.5246 12.0727 10.5064 12.1091 10.5064 12.1455V12.5273C10.5064 12.5273 10.5246 12.6 10.5519 12.6273C10.5792 12.6545 10.6157 12.6727 10.6521 12.6727H10.9709C10.9709 12.6727 11.0437 12.6545 11.071 12.6273C11.1985 12.5 11.5719 12.1273 11.6995 12C11.7268 11.9727 11.7632 11.9545 11.7996 11.9545H11.9545C11.9545 11.9545 12.0273 11.9727 12.0546 12L12.3825 12.3273C12.3825 12.3273 12.4463 12.3636 12.4827 12.3455C12.5191 12.3273 12.5373 12.3 12.5373 12.2636V12.2455C12.5009 12.2091 12.2823 11.9909 12.2277 11.9364C12.2277 11.9364 12.2186 11.9182 12.2186 11.9091C12.2186 11.8727 12.2368 11.8364 12.2732 11.8273C12.3097 11.8182 12.3461 11.8273 12.3734 11.8455C12.51 11.9818 12.7013 12.1727 12.7832 12.2545C12.8106 12.2818 12.8288 12.3182 12.8288 12.3545V12.6727C12.8652 12.6364 13.5665 11.9364 13.7486 11.7545C13.776 11.7273 13.8124 11.7091 13.8488 11.7091H14.0856C14.0856 11.7091 14.1585 11.7273 14.1858 11.7545C14.2587 11.8273 14.4226 11.9909 14.4863 12.0545C14.5046 12.0727 14.5137 12.1 14.5137 12.1273C14.5137 12.1636 14.5046 12.1909 14.4772 12.2182C14.4499 12.2455 14.4226 12.2545 14.3862 12.2545H13.6302C13.6302 12.2545 13.5574 12.2727 13.5301 12.3C13.4572 12.3727 13.3115 12.5182 13.3024 12.5273C13.3024 12.5273 13.4572 12.6818 13.5301 12.7545C13.5574 12.7818 13.5938 12.8 13.6302 12.8H13.8852C13.9672 12.8 14.031 12.8636 14.031 12.9455V13.1182C14.031 13.2 13.9672 13.2636 13.8852 13.2636H12.5556C12.5556 13.2636 12.4827 13.2455 12.4554 13.2182C12.3825 13.1455 12.2186 12.9818 12.1457 12.9091C12.1184 12.8818 12.082 12.8636 12.0455 12.8636H10.9709C10.9709 12.8636 10.898 12.8818 10.8707 12.9091C10.7067 13.0727 10.0874 13.6909 9.91439 13.8636C9.88707 13.8909 9.86885 13.9273 9.86885 13.9636V14.7364C9.86885 14.7364 9.88707 14.8091 9.91439 14.8364C10.0237 14.9455 10.3424 15.2636 10.4517 15.3727C10.4791 15.4 10.5155 15.4182 10.5519 15.4182H11.8543C11.8543 15.4182 11.9271 15.4364 11.9545 15.4636C11.9818 15.4909 12 15.5273 12 15.5636V17.0273C12 17.0273 12.0182 17.1 12.0455 17.1273C12.1093 17.1909 12.2277 17.3091 12.2914 17.3727C12.3188 17.4 12.337 17.4364 12.337 17.4727V18.2909C12.337 18.2909 12.3552 18.3636 12.3825 18.3909L12.6284 18.6364C12.6284 18.6364 12.6922 18.6818 12.7286 18.6818H13.2204C13.2204 18.6818 13.2933 18.6636 13.3206 18.6364L13.9945 17.9636C13.9945 17.9636 14.0401 17.9 14.0401 17.8636V17.4636C14.0401 17.4636 14.0583 17.3909 14.0856 17.3636L14.459 16.9909C14.459 16.9909 14.5046 16.9273 14.5046 16.8909V16.0909C14.5046 16.0909 14.5228 16.0182 14.5501 15.9909L15.2605 15.2818C15.2605 15.2818 15.306 15.2182 15.306 15.1818V14.8727C15.306 14.8727 15.2878 14.8 15.2605 14.7727C15.2332 14.7455 15.1967 14.7273 15.1603 14.7273H14.6958C14.6958 14.7273 14.623 14.7091 14.5956 14.6818C14.5046 14.5909 14.2951 14.3818 14.204 14.2909C14.1767 14.2636 14.1585 14.2273 14.1585 14.1909V14.0273C14.1585 14.0273 14.1403 13.9545 14.1129 13.9273C14.0765 13.8909 14.0128 13.8273 13.9672 13.7818C13.9399 13.7545 13.9217 13.7182 13.9217 13.6818C13.9217 13.6455 13.9399 13.6091 13.9672 13.5818C14.0128 13.5364 14.0492 13.5 14.0492 13.5C14.0492 13.5 14.3133 13.7636 14.4135 13.8636C14.4408 13.8909 14.459 13.9273 14.459 13.9636V14.2C14.459 14.2 14.4772 14.2727 14.5046 14.3C14.5683 14.3636 14.6958 14.4909 14.7596 14.5545C14.7869 14.5818 14.8233 14.6 14.8597 14.6H15.3151C15.3151 14.6 15.388 14.5818 15.4153 14.5545C15.5155 14.4545 15.7523 14.2182 15.898 14.0727C15.9526 14.0182 15.9526 13.9273 15.898 13.8727C15.898 13.8727 15.898 13.8727 15.8889 13.8636C15.8616 13.8364 15.8251 13.8182 15.7887 13.8182H15.4244C15.4244 13.8182 15.3515 13.8 15.3242 13.7727C15.2969 13.7455 15.2605 13.7091 15.224 13.6727C15.1876 13.6364 15.1785 13.5909 15.1967 13.5455C15.2149 13.5 15.2514 13.4727 15.306 13.4727H15.3242C15.3424 13.4909 15.4062 13.5545 15.4517 13.6C15.4791 13.6273 15.5155 13.6455 15.5519 13.6455H15.8069C15.8069 13.6455 15.8798 13.6636 15.9071 13.6909C15.9071 13.6909 15.9162 13.7 15.9253 13.7091C15.9526 13.7364 15.9891 13.7545 16.0255 13.7545H16.49C16.49 13.7545 16.5628 13.7727 16.5902 13.8L17.0911 14.3C17.0911 14.3 17.1366 14.3636 17.1366 14.4V14.5818C17.1366 14.5818 17.1548 14.6545 17.1821 14.6818C17.1821 14.6818 17.2004 14.7 17.2095 14.7C17.2368 14.7273 17.255 14.7636 17.255 14.8V14.8636C17.255 14.8636 17.2732 14.9364 17.3005 14.9636C17.3188 14.9818 17.3461 15.0091 17.3734 15.0364C17.4281 15.0909 17.5191 15.0909 17.5738 15.0364C17.6011 15.0091 17.6193 14.9909 17.6466 14.9636C17.674 14.9364 17.6922 14.9 17.6922 14.8636V14.6364C17.6922 14.6364 17.7104 14.5636 17.7377 14.5364C17.8379 14.4364 18.0838 14.1909 18.184 14.0909C18.2113 14.0636 18.2477 14.0455 18.2842 14.0455H18.5118C18.5118 14.0455 18.5847 14.0636 18.612 14.0909C18.7668 14.2455 19.3224 14.8 19.5592 15.0364C19.5865 15.0636 19.6229 15.0818 19.6594 15.0818C19.6958 15.0818 19.7322 15.0636 19.7596 15.0364C19.8142 14.9818 19.8871 14.9091 19.9508 14.8455C19.9781 14.8182 19.9964 14.7818 19.9964 14.7455C19.9964 14.7091 19.9781 14.6727 19.9508 14.6455C19.8962 14.5909 19.8324 14.5273 19.7778 14.4727C19.7505 14.4455 19.7322 14.4091 19.7322 14.3727C19.7322 14.3364 19.7505 14.3 19.7778 14.2727L20.0146 14.0364C20.0146 14.0364 20.0783 13.9909 20.1148 13.9909H20.4608C20.4608 13.9909 20.5337 13.9727 20.561 13.9455L20.8707 13.6364C20.8707 13.6364 20.9162 13.5727 20.9162 13.5364V12.5364C20.9162 12.4545 20.98 12.3909 21.0619 12.3909H21.1439C21.1439 12.3909 21.2168 12.4091 21.2441 12.4273C21.2168 13.0818 21.1166 13.7182 20.9526 14.3273H20.9253C20.9253 14.3273 20.8707 14.3545 20.8707 14.3818V14.6182C20.8707 14.6182 20.8707 14.6273 20.8707 14.6364C20.8069 14.8545 20.725 15.0636 20.643 15.2727C20.643 15.2727 20.643 15.2727 20.6248 15.2727C20.6066 15.2727 20.5975 15.2727 20.5883 15.2909C20.4973 15.3818 20.2787 15.6 20.2149 15.6636C20.2058 15.6727 20.1876 15.6818 20.1785 15.6818H20.0601C20.0601 15.6818 20.0328 15.6818 20.0237 15.7C20.0146 15.7182 20.0055 15.7273 20.0055 15.7364V15.8545C20.0055 15.8545 20.0055 15.8818 20.0237 15.8909C20.0601 15.9273 20.1603 16.0273 20.2058 16.0727C20.2149 16.0818 20.2332 16.0909 20.2423 16.0909H20.2878C18.7851 19.0455 15.7158 21.0818 12.173 21.0818L11.9818 21.0909ZM15.0237 12.2091C15.0237 12.2091 14.9326 12.1182 14.8962 12.0818C14.8689 12.0545 14.8506 12.0182 14.8506 11.9818V11.9273C14.8506 11.9273 14.8689 11.8545 14.8962 11.8273C14.9417 11.7818 15.0237 11.7 15.0692 11.6545C15.0965 11.6273 15.133 11.6091 15.1694 11.6091H15.2149C15.2149 11.6091 15.2787 11.6182 15.306 11.6455C15.3333 11.6727 15.3424 11.7 15.3424 11.7364V11.7545C15.3424 11.7545 15.3424 11.7727 15.3333 11.7818L15.2605 11.8545C15.2058 11.9091 15.2058 12 15.2605 12.0545C15.2969 12.0909 15.3424 12.1364 15.3698 12.1636C15.3971 12.1909 15.4153 12.2273 15.4153 12.2636V12.5727C15.4153 12.5727 15.3971 12.6455 15.3789 12.6636C15.3515 12.6909 15.3242 12.7 15.2878 12.7H15.2605C15.2605 12.7 15.2332 12.7 15.224 12.6818L15.1148 12.5727C15.1148 12.5727 15.0692 12.5091 15.0692 12.4727V12.3C15.0692 12.3 15.051 12.2273 15.0237 12.2V12.2091Z"/>
<path d="M10.7887 10.6C10.7887 10.6 10.8343 10.6637 10.8343 10.7V10.8637C10.8343 10.8637 10.816 10.9364 10.7887 10.9637C10.7614 10.9909 10.7341 11.0182 10.725 11.0273C10.725 11.0273 10.725 11.0273 10.725 11.0364C10.725 11.0909 10.7523 11.1273 10.7887 11.1455C10.8252 11.1637 10.8707 11.1455 10.898 11.1273C10.9071 11.1182 10.9162 11.1091 10.9344 11.1091H11.0711C11.0711 11.1091 11.1439 11.0909 11.1712 11.0637C11.1986 11.0364 11.2168 11 11.2168 10.9637V10.8909C11.2168 10.8909 11.1986 10.8182 11.1712 10.7909C11.1348 10.7546 11.0893 10.7091 11.0528 10.6728C11.0255 10.6455 11.0073 10.6091 11.0073 10.5728V10.3728C11.0073 10.2909 10.9436 10.2273 10.8616 10.2273H10.8343V10.1727C10.8343 10.1727 10.7978 10.0909 10.7523 10.0909C10.6977 10.0909 10.6612 10.1364 10.6612 10.1818V10.4C10.6612 10.4 10.6794 10.4728 10.7068 10.5C10.7341 10.5273 10.7705 10.5637 10.7978 10.5909L10.7887 10.6Z"/>
<path d="M10.4148 11.0636C10.4148 11.0636 10.4784 11.0545 10.4966 11.0272L10.5875 10.9363C10.5875 10.9363 10.633 10.8727 10.633 10.8363V10.709C10.633 10.709 10.6239 10.6454 10.5966 10.6272C10.5784 10.609 10.542 10.5909 10.5148 10.5909H10.4784C10.4602 10.609 10.4057 10.6636 10.3693 10.7C10.342 10.7272 10.3239 10.7636 10.3239 10.8V10.9909C10.3239 10.9909 10.3239 11.0181 10.333 11.0181C10.3511 11.0363 10.3875 11.0545 10.4148 11.0545V11.0636Z"/>
<path d="M19.5319 16.0273L18.94 15.4364C18.94 15.4364 18.9126 15.4182 18.9035 15.4182H18.8125C18.8125 15.4182 18.7669 15.4364 18.7578 15.4546C18.7578 15.4727 18.7578 15.5 18.7669 15.5182C18.8853 15.6364 19.0675 15.8182 19.1221 15.8727C19.1312 15.8818 19.1403 15.9 19.1403 15.9091V16C19.1403 16 19.1403 16.0273 19.1585 16.0364L19.3589 16.2364C19.3589 16.2364 19.3862 16.2546 19.3953 16.2546H19.4773C19.4773 16.2546 19.5046 16.2546 19.5137 16.2364C19.5228 16.2182 19.5319 16.2091 19.5319 16.2C19.5319 16.1546 19.5319 16.0909 19.5319 16.0546C19.5319 16.0364 19.5319 16.0273 19.5137 16.0182L19.5319 16.0273Z"/>
<path d="M14.9868 16.9909C14.9322 16.9727 14.8686 16.9818 14.8322 17.0182C14.7595 17.0909 14.6868 17.1636 14.6413 17.2091C14.6141 17.2363 14.5959 17.2727 14.5959 17.3091V17.7454C14.5959 17.7454 14.5959 17.7818 14.6141 17.7909L14.6322 17.8091C14.6595 17.8363 14.6959 17.8545 14.7322 17.8545C14.7686 17.8545 14.805 17.8363 14.8322 17.8091C14.8595 17.7818 14.8868 17.7545 14.905 17.7363C14.9322 17.7091 14.9504 17.6727 14.9504 17.6363V17.5545C14.9504 17.5545 14.9686 17.4818 14.9959 17.4545C15.005 17.4454 15.0232 17.4273 15.0322 17.4182C15.0595 17.3909 15.0777 17.3545 15.0777 17.3182V17.1182C15.0777 17.0636 15.0413 17.0091 14.9868 16.9909Z"/>
</mask>
<path d="M21.8634 10.4182C21.8634 10.4182 21.8634 10.3818 21.8634 10.3545C21.0619 5.61818 16.9545 2 11.9818 2C10.4973 2 9.09472 2.32727 7.82878 2.90909H7.76503C7.76503 2.90909 7.69217 2.92727 7.66485 2.95455L7.59199 3.02727C7.06375 3.28182 6.57195 3.58182 6.10747 3.92727C5.35155 4.48182 4.6776 5.13636 4.09472 5.87273C3.66667 6.42727 3.29326 7.02727 2.98361 7.66364C2.90164 7.84545 2.81056 8.01818 2.7377 8.2C2.59199 8.54545 2.47359 8.90909 2.37341 9.27273C2.37341 9.28182 2.37341 9.29091 2.37341 9.3C2.30055 9.57273 2.22769 9.84545 2.17304 10.1273C2.15483 10.2091 2.14572 10.2909 2.13661 10.3727C2.10018 10.5909 2.06375 10.8091 2.04554 11.0364C2.01821 11.3545 2 11.6727 2 12C2 12.4182 2.03643 12.8273 2.08197 13.2364H2.04554C2.34608 15.6727 3.53005 17.8364 5.26047 19.4C5.47905 19.6 5.71585 19.7909 5.95264 19.9727C7.62842 21.2364 9.71403 22 11.9818 22C17.5191 22 22 17.5273 22 12C22 11.4545 21.9454 10.9364 21.8634 10.4182ZM3.23862 14.5364H3.60291C3.60291 14.5364 3.67577 14.5545 3.7031 14.5818C3.73953 14.6182 3.79417 14.6727 3.8306 14.7091C3.85792 14.7364 3.89435 14.7545 3.93078 14.7545H4.03097C4.03097 14.7545 4.10383 14.7727 4.13115 14.8C4.22222 14.8909 4.42259 15.0909 4.50455 15.1727C4.53188 15.2 4.56831 15.2182 4.60474 15.2182H4.77778C4.77778 15.2182 4.85064 15.2364 4.87796 15.2636C4.90528 15.2909 4.9235 15.3273 4.9235 15.3636V15.5364C4.9235 15.5364 4.90528 15.6091 4.87796 15.6364C4.83242 15.6818 4.74135 15.7727 4.69581 15.8182C4.66849 15.8455 4.65027 15.8818 4.65027 15.9182V16.3909C4.65027 16.3909 4.66849 16.4636 4.69581 16.4909C4.84153 16.6364 5.32423 17.1182 5.46995 17.2545C5.49727 17.2818 5.51548 17.3182 5.51548 17.3545V18.4091C4.45902 17.3455 3.66667 16.0182 3.23862 14.5455V14.5364ZM11.9818 21.0909C9.85064 21.0909 7.88342 20.3455 6.33516 19.1182L7.9745 17.4818C7.9745 17.4818 8.02004 17.4182 8.02004 17.3818V16.9455C8.02004 16.9455 8.03825 16.8727 8.06557 16.8455C8.12933 16.7818 8.23862 16.6727 8.30237 16.6091C8.32969 16.5818 8.34791 16.5455 8.34791 16.5091V16.3909C8.34791 16.3909 8.32969 16.3182 8.30237 16.2909C8.23862 16.2273 8.12933 16.1182 8.06557 16.0545C8.03825 16.0273 8.00182 16.0091 7.96539 16.0091H7.50091C7.50091 16.0091 7.42805 15.9909 7.40073 15.9636L6.34426 14.9091C6.34426 14.9091 6.28051 14.8636 6.24408 14.8636H5.35155C5.35155 14.8636 5.27869 14.8818 5.25137 14.9091C5.24226 14.9182 5.22404 14.9364 5.21494 14.9455C5.18761 14.9727 5.15118 14.9909 5.11475 14.9909H4.76867C4.76867 14.9909 4.69581 14.9727 4.66849 14.9455C4.55009 14.8273 4.20401 14.4818 4.08561 14.3636C4.05829 14.3364 4.02186 14.3182 3.98543 14.3182H3.63024C3.63024 14.3182 3.55738 14.3 3.53005 14.2727C3.49362 14.2364 3.43898 14.1818 3.40255 14.1455C3.37523 14.1182 3.35701 14.0818 3.35701 14.0455V13.6727C3.35701 13.6727 3.37523 13.6 3.40255 13.5727L3.63934 13.3364C3.63934 13.3364 3.7031 13.2909 3.73953 13.2909H4.39526C4.39526 13.2909 4.46812 13.3091 4.49545 13.3364C4.52277 13.3636 4.54098 13.4 4.54098 13.4364V13.4818C4.54098 13.4818 4.54098 13.5 4.55009 13.5091C4.58652 13.5455 4.63206 13.5545 4.6776 13.5364C4.72313 13.5182 4.75046 13.4727 4.75046 13.4273V13.2273C4.75046 13.2273 4.76867 13.1545 4.79599 13.1273C4.85064 13.0727 4.95993 12.9636 5.01457 12.9091C5.04189 12.8818 5.06011 12.8455 5.06011 12.8091V12.6545C5.06011 12.6545 5.07832 12.5818 5.10565 12.5545C5.26047 12.4 5.80692 11.8545 5.96175 11.7C5.98907 11.6727 6.00729 11.6364 6.00729 11.6V11.3364C6.00729 11.2545 6.07104 11.1909 6.15301 11.1909H6.41712C6.41712 11.1909 6.48998 11.1727 6.5173 11.1455C6.55373 11.1091 6.60838 11.0545 6.64481 11.0182C6.67213 10.9909 6.69035 10.9545 6.69035 10.9182C6.69035 10.9182 6.68124 10.8545 6.65392 10.8273C6.59016 10.7636 6.45355 10.6182 6.38069 10.5545C6.35337 10.5273 6.33516 10.4909 6.33516 10.4545V10.1727C6.33516 10.1727 6.31694 10.1 6.28962 10.0727L6.13479 9.91818C6.13479 9.91818 6.07104 9.87273 6.03461 9.87273C5.99818 9.87273 5.96175 9.89091 5.93443 9.91818C5.9071 9.94545 5.87067 9.96364 5.83424 9.96364C5.79781 9.96364 5.76138 9.94545 5.73406 9.91818C5.61566 9.8 5.42441 9.60909 5.33333 9.51818C5.30601 9.49091 5.26958 9.47273 5.23315 9.47273H4.98725C4.90528 9.47273 4.84153 9.53636 4.84153 9.61818V10.8C4.84153 10.8 4.82332 10.8727 4.79599 10.9C4.76867 10.9273 4.73224 10.9455 4.69581 10.9455H4.59563C4.59563 10.9455 4.52277 10.9273 4.49545 10.9C4.34062 10.7455 3.82149 10.2273 3.67577 10.0818C3.64845 10.0545 3.63024 10.0182 3.63024 9.98182V9.74546C3.63024 9.74546 3.64845 9.67273 3.67577 9.64545C3.78506 9.53636 4.0674 9.25455 4.17669 9.14545C4.20401 9.11818 4.22222 9.08182 4.22222 9.04545V8.55455C4.22222 8.55455 4.20401 8.48182 4.17669 8.45455L3.89435 8.17273C3.89435 8.17273 3.80328 8.13636 3.75774 8.14545C3.86703 7.91818 3.97632 7.69091 4.10383 7.48182C4.4408 7.81818 4.84153 8.21818 4.96903 8.34545C4.99636 8.37273 5.01457 8.40909 5.01457 8.44546V8.62727C5.01457 8.62727 5.03279 8.7 5.06011 8.72727C5.22404 8.89091 5.85246 9.51818 5.85246 9.51818C5.85246 9.51818 6.03461 9.33636 6.11658 9.25455C6.1439 9.22727 6.16211 9.19091 6.16211 9.15455V8.70909C6.16211 8.70909 6.1439 8.63636 6.11658 8.60909C6.05282 8.54545 5.95264 8.44545 5.88889 8.38182C5.86157 8.35455 5.84335 8.31818 5.84335 8.28182V7.96364C5.84335 7.96364 5.82514 7.89091 5.79781 7.86364C5.64299 7.70909 5.12386 7.19091 4.96903 7.03636C4.94171 7.00909 4.90528 6.99091 4.86885 6.99091H4.41348C4.54098 6.8 4.66849 6.62727 4.8051 6.44545C4.82332 6.44545 4.84153 6.46364 4.85975 6.45455C4.91439 6.43636 4.95082 6.38182 4.95082 6.32727V6.26364C5.16029 6.00909 5.37887 5.76364 5.60656 5.53636V5.9C5.60656 5.9 5.62477 5.97273 5.6521 6C5.85246 6.2 6.68124 7.02727 6.8725 7.21818C6.89982 7.24545 6.91803 7.28182 6.91803 7.31818V9.01818C6.91803 9.01818 6.93625 9.09091 6.96357 9.11818L7.51002 9.66364C7.51002 9.66364 7.6102 9.71818 7.66485 9.69091C7.71949 9.67273 7.75592 9.61818 7.75592 9.56364V9.31818C7.75592 9.31818 7.77413 9.24545 7.80146 9.21818C8.03825 8.98182 9.21312 7.80909 9.44991 7.57273C9.47723 7.54545 9.49545 7.50909 9.49545 7.47273V5.33636C9.49545 5.33636 9.51366 5.26364 9.54098 5.23636C9.64117 5.13636 9.90528 4.87273 10.0055 4.77273C10.0328 4.74545 10.051 4.70909 10.051 4.67273V4.1C10.051 4.1 10.0328 4.02727 10.0055 4C9.97814 3.97273 9.94171 3.95455 9.90528 3.95455H9.52277C9.52277 3.95455 9.44991 3.93636 9.42259 3.90909C9.39526 3.88182 9.37705 3.84545 9.37705 3.80909V3.28182C10.224 3.02727 11.1166 2.88182 12.0455 2.88182C14.7869 2.88182 17.2459 4.10909 18.9217 6.02727C18.8944 6.02727 18.867 6.03636 18.8488 6.06364C18.6576 6.25455 17.847 7.06364 17.6466 7.26364C17.6193 7.29091 17.5829 7.30909 17.5464 7.30909H16.6812C16.6812 7.30909 16.6084 7.32727 16.5811 7.35455L15.6521 8.28182C15.6521 8.28182 15.5883 8.32727 15.5519 8.32727H14.2313C14.2313 8.32727 14.1585 8.30909 14.1311 8.28182C14.031 8.18182 13.776 7.92727 13.6758 7.82727C13.6485 7.8 13.612 7.78182 13.5756 7.78182H13.1566C13.1566 7.78182 13.0838 7.8 13.0565 7.82727L11.6903 9.19091C11.6903 9.19091 11.6448 9.25455 11.6448 9.29091V9.8C11.6448 9.8 11.663 9.87273 11.6903 9.9C11.7905 10 12.0455 10.2545 12.1913 10.4C12.2459 10.4545 12.337 10.4545 12.3916 10.4C12.4736 10.3182 12.5738 10.2182 12.6375 10.1545C12.6648 10.1273 12.6831 10.0909 12.6831 10.0545V9.4C12.6831 9.4 12.7013 9.32727 12.7286 9.3C12.8106 9.21818 13.0018 9.02727 13.0474 8.98182C13.0474 8.98182 13.0656 8.97273 13.0747 8.97273C13.1111 8.97273 13.1384 8.99091 13.1475 9.02727C13.1566 9.05455 13.1475 9.09091 13.1293 9.11818C13.0656 9.18182 12.9927 9.25455 12.9563 9.3C12.929 9.32727 12.9107 9.36364 12.9107 9.4V9.57273C12.9107 9.57273 12.929 9.64545 12.9563 9.67273C12.9836 9.7 13.02 9.73636 13.0474 9.76364C13.0747 9.79091 13.0929 9.82727 13.0929 9.86364V10.3C13.0929 10.3 13.0747 10.3727 13.0474 10.4C12.9654 10.4818 12.8015 10.6455 12.7286 10.7182C12.7013 10.7455 12.6648 10.7636 12.6284 10.7636H11.8087C11.8087 10.7636 11.7359 10.7818 11.7086 10.8091C11.5902 10.9273 11.2441 11.2727 11.1257 11.3909C11.0984 11.4182 11.0801 11.4545 11.0801 11.4909V11.8545C11.0801 11.8545 11.0619 11.9273 11.0346 11.9545C11.0073 11.9818 10.9709 12 10.9344 12H10.6521C10.6521 12 10.5792 12.0182 10.5519 12.0455C10.5246 12.0727 10.5064 12.1091 10.5064 12.1455V12.5273C10.5064 12.5273 10.5246 12.6 10.5519 12.6273C10.5792 12.6545 10.6157 12.6727 10.6521 12.6727H10.9709C10.9709 12.6727 11.0437 12.6545 11.071 12.6273C11.1985 12.5 11.5719 12.1273 11.6995 12C11.7268 11.9727 11.7632 11.9545 11.7996 11.9545H11.9545C11.9545 11.9545 12.0273 11.9727 12.0546 12L12.3825 12.3273C12.3825 12.3273 12.4463 12.3636 12.4827 12.3455C12.5191 12.3273 12.5373 12.3 12.5373 12.2636V12.2455C12.5009 12.2091 12.2823 11.9909 12.2277 11.9364C12.2277 11.9364 12.2186 11.9182 12.2186 11.9091C12.2186 11.8727 12.2368 11.8364 12.2732 11.8273C12.3097 11.8182 12.3461 11.8273 12.3734 11.8455C12.51 11.9818 12.7013 12.1727 12.7832 12.2545C12.8106 12.2818 12.8288 12.3182 12.8288 12.3545V12.6727C12.8652 12.6364 13.5665 11.9364 13.7486 11.7545C13.776 11.7273 13.8124 11.7091 13.8488 11.7091H14.0856C14.0856 11.7091 14.1585 11.7273 14.1858 11.7545C14.2587 11.8273 14.4226 11.9909 14.4863 12.0545C14.5046 12.0727 14.5137 12.1 14.5137 12.1273C14.5137 12.1636 14.5046 12.1909 14.4772 12.2182C14.4499 12.2455 14.4226 12.2545 14.3862 12.2545H13.6302C13.6302 12.2545 13.5574 12.2727 13.5301 12.3C13.4572 12.3727 13.3115 12.5182 13.3024 12.5273C13.3024 12.5273 13.4572 12.6818 13.5301 12.7545C13.5574 12.7818 13.5938 12.8 13.6302 12.8H13.8852C13.9672 12.8 14.031 12.8636 14.031 12.9455V13.1182C14.031 13.2 13.9672 13.2636 13.8852 13.2636H12.5556C12.5556 13.2636 12.4827 13.2455 12.4554 13.2182C12.3825 13.1455 12.2186 12.9818 12.1457 12.9091C12.1184 12.8818 12.082 12.8636 12.0455 12.8636H10.9709C10.9709 12.8636 10.898 12.8818 10.8707 12.9091C10.7067 13.0727 10.0874 13.6909 9.91439 13.8636C9.88707 13.8909 9.86885 13.9273 9.86885 13.9636V14.7364C9.86885 14.7364 9.88707 14.8091 9.91439 14.8364C10.0237 14.9455 10.3424 15.2636 10.4517 15.3727C10.4791 15.4 10.5155 15.4182 10.5519 15.4182H11.8543C11.8543 15.4182 11.9271 15.4364 11.9545 15.4636C11.9818 15.4909 12 15.5273 12 15.5636V17.0273C12 17.0273 12.0182 17.1 12.0455 17.1273C12.1093 17.1909 12.2277 17.3091 12.2914 17.3727C12.3188 17.4 12.337 17.4364 12.337 17.4727V18.2909C12.337 18.2909 12.3552 18.3636 12.3825 18.3909L12.6284 18.6364C12.6284 18.6364 12.6922 18.6818 12.7286 18.6818H13.2204C13.2204 18.6818 13.2933 18.6636 13.3206 18.6364L13.9945 17.9636C13.9945 17.9636 14.0401 17.9 14.0401 17.8636V17.4636C14.0401 17.4636 14.0583 17.3909 14.0856 17.3636L14.459 16.9909C14.459 16.9909 14.5046 16.9273 14.5046 16.8909V16.0909C14.5046 16.0909 14.5228 16.0182 14.5501 15.9909L15.2605 15.2818C15.2605 15.2818 15.306 15.2182 15.306 15.1818V14.8727C15.306 14.8727 15.2878 14.8 15.2605 14.7727C15.2332 14.7455 15.1967 14.7273 15.1603 14.7273H14.6958C14.6958 14.7273 14.623 14.7091 14.5956 14.6818C14.5046 14.5909 14.2951 14.3818 14.204 14.2909C14.1767 14.2636 14.1585 14.2273 14.1585 14.1909V14.0273C14.1585 14.0273 14.1403 13.9545 14.1129 13.9273C14.0765 13.8909 14.0128 13.8273 13.9672 13.7818C13.9399 13.7545 13.9217 13.7182 13.9217 13.6818C13.9217 13.6455 13.9399 13.6091 13.9672 13.5818C14.0128 13.5364 14.0492 13.5 14.0492 13.5C14.0492 13.5 14.3133 13.7636 14.4135 13.8636C14.4408 13.8909 14.459 13.9273 14.459 13.9636V14.2C14.459 14.2 14.4772 14.2727 14.5046 14.3C14.5683 14.3636 14.6958 14.4909 14.7596 14.5545C14.7869 14.5818 14.8233 14.6 14.8597 14.6H15.3151C15.3151 14.6 15.388 14.5818 15.4153 14.5545C15.5155 14.4545 15.7523 14.2182 15.898 14.0727C15.9526 14.0182 15.9526 13.9273 15.898 13.8727C15.898 13.8727 15.898 13.8727 15.8889 13.8636C15.8616 13.8364 15.8251 13.8182 15.7887 13.8182H15.4244C15.4244 13.8182 15.3515 13.8 15.3242 13.7727C15.2969 13.7455 15.2605 13.7091 15.224 13.6727C15.1876 13.6364 15.1785 13.5909 15.1967 13.5455C15.2149 13.5 15.2514 13.4727 15.306 13.4727H15.3242C15.3424 13.4909 15.4062 13.5545 15.4517 13.6C15.4791 13.6273 15.5155 13.6455 15.5519 13.6455H15.8069C15.8069 13.6455 15.8798 13.6636 15.9071 13.6909C15.9071 13.6909 15.9162 13.7 15.9253 13.7091C15.9526 13.7364 15.9891 13.7545 16.0255 13.7545H16.49C16.49 13.7545 16.5628 13.7727 16.5902 13.8L17.0911 14.3C17.0911 14.3 17.1366 14.3636 17.1366 14.4V14.5818C17.1366 14.5818 17.1548 14.6545 17.1821 14.6818C17.1821 14.6818 17.2004 14.7 17.2095 14.7C17.2368 14.7273 17.255 14.7636 17.255 14.8V14.8636C17.255 14.8636 17.2732 14.9364 17.3005 14.9636C17.3188 14.9818 17.3461 15.0091 17.3734 15.0364C17.4281 15.0909 17.5191 15.0909 17.5738 15.0364C17.6011 15.0091 17.6193 14.9909 17.6466 14.9636C17.674 14.9364 17.6922 14.9 17.6922 14.8636V14.6364C17.6922 14.6364 17.7104 14.5636 17.7377 14.5364C17.8379 14.4364 18.0838 14.1909 18.184 14.0909C18.2113 14.0636 18.2477 14.0455 18.2842 14.0455H18.5118C18.5118 14.0455 18.5847 14.0636 18.612 14.0909C18.7668 14.2455 19.3224 14.8 19.5592 15.0364C19.5865 15.0636 19.6229 15.0818 19.6594 15.0818C19.6958 15.0818 19.7322 15.0636 19.7596 15.0364C19.8142 14.9818 19.8871 14.9091 19.9508 14.8455C19.9781 14.8182 19.9964 14.7818 19.9964 14.7455C19.9964 14.7091 19.9781 14.6727 19.9508 14.6455C19.8962 14.5909 19.8324 14.5273 19.7778 14.4727C19.7505 14.4455 19.7322 14.4091 19.7322 14.3727C19.7322 14.3364 19.7505 14.3 19.7778 14.2727L20.0146 14.0364C20.0146 14.0364 20.0783 13.9909 20.1148 13.9909H20.4608C20.4608 13.9909 20.5337 13.9727 20.561 13.9455L20.8707 13.6364C20.8707 13.6364 20.9162 13.5727 20.9162 13.5364V12.5364C20.9162 12.4545 20.98 12.3909 21.0619 12.3909H21.1439C21.1439 12.3909 21.2168 12.4091 21.2441 12.4273C21.2168 13.0818 21.1166 13.7182 20.9526 14.3273H20.9253C20.9253 14.3273 20.8707 14.3545 20.8707 14.3818V14.6182C20.8707 14.6182 20.8707 14.6273 20.8707 14.6364C20.8069 14.8545 20.725 15.0636 20.643 15.2727C20.643 15.2727 20.643 15.2727 20.6248 15.2727C20.6066 15.2727 20.5975 15.2727 20.5883 15.2909C20.4973 15.3818 20.2787 15.6 20.2149 15.6636C20.2058 15.6727 20.1876 15.6818 20.1785 15.6818H20.0601C20.0601 15.6818 20.0328 15.6818 20.0237 15.7C20.0146 15.7182 20.0055 15.7273 20.0055 15.7364V15.8545C20.0055 15.8545 20.0055 15.8818 20.0237 15.8909C20.0601 15.9273 20.1603 16.0273 20.2058 16.0727C20.2149 16.0818 20.2332 16.0909 20.2423 16.0909H20.2878C18.7851 19.0455 15.7158 21.0818 12.173 21.0818L11.9818 21.0909ZM15.0237 12.2091C15.0237 12.2091 14.9326 12.1182 14.8962 12.0818C14.8689 12.0545 14.8506 12.0182 14.8506 11.9818V11.9273C14.8506 11.9273 14.8689 11.8545 14.8962 11.8273C14.9417 11.7818 15.0237 11.7 15.0692 11.6545C15.0965 11.6273 15.133 11.6091 15.1694 11.6091H15.2149C15.2149 11.6091 15.2787 11.6182 15.306 11.6455C15.3333 11.6727 15.3424 11.7 15.3424 11.7364V11.7545C15.3424 11.7545 15.3424 11.7727 15.3333 11.7818L15.2605 11.8545C15.2058 11.9091 15.2058 12 15.2605 12.0545C15.2969 12.0909 15.3424 12.1364 15.3698 12.1636C15.3971 12.1909 15.4153 12.2273 15.4153 12.2636V12.5727C15.4153 12.5727 15.3971 12.6455 15.3789 12.6636C15.3515 12.6909 15.3242 12.7 15.2878 12.7H15.2605C15.2605 12.7 15.2332 12.7 15.224 12.6818L15.1148 12.5727C15.1148 12.5727 15.0692 12.5091 15.0692 12.4727V12.3C15.0692 12.3 15.051 12.2273 15.0237 12.2V12.2091Z" fill="#19213D"/>
<path d="M10.7887 10.6C10.7887 10.6 10.8343 10.6637 10.8343 10.7V10.8637C10.8343 10.8637 10.816 10.9364 10.7887 10.9637C10.7614 10.9909 10.7341 11.0182 10.725 11.0273C10.725 11.0273 10.725 11.0273 10.725 11.0364C10.725 11.0909 10.7523 11.1273 10.7887 11.1455C10.8252 11.1637 10.8707 11.1455 10.898 11.1273C10.9071 11.1182 10.9162 11.1091 10.9344 11.1091H11.0711C11.0711 11.1091 11.1439 11.0909 11.1712 11.0637C11.1986 11.0364 11.2168 11 11.2168 10.9637V10.8909C11.2168 10.8909 11.1986 10.8182 11.1712 10.7909C11.1348 10.7546 11.0893 10.7091 11.0528 10.6728C11.0255 10.6455 11.0073 10.6091 11.0073 10.5728V10.3728C11.0073 10.2909 10.9436 10.2273 10.8616 10.2273H10.8343V10.1727C10.8343 10.1727 10.7978 10.0909 10.7523 10.0909C10.6977 10.0909 10.6612 10.1364 10.6612 10.1818V10.4C10.6612 10.4 10.6794 10.4728 10.7068 10.5C10.7341 10.5273 10.7705 10.5637 10.7978 10.5909L10.7887 10.6Z" fill="#19213D"/>
<path d="M10.4148 11.0636C10.4148 11.0636 10.4784 11.0545 10.4966 11.0272L10.5875 10.9363C10.5875 10.9363 10.633 10.8727 10.633 10.8363V10.709C10.633 10.709 10.6239 10.6454 10.5966 10.6272C10.5784 10.609 10.542 10.5909 10.5148 10.5909H10.4784C10.4602 10.609 10.4057 10.6636 10.3693 10.7C10.342 10.7272 10.3239 10.7636 10.3239 10.8V10.9909C10.3239 10.9909 10.3239 11.0181 10.333 11.0181C10.3511 11.0363 10.3875 11.0545 10.4148 11.0545V11.0636Z" fill="#19213D"/>
<path d="M19.5319 16.0273L18.94 15.4364C18.94 15.4364 18.9126 15.4182 18.9035 15.4182H18.8125C18.8125 15.4182 18.7669 15.4364 18.7578 15.4546C18.7578 15.4727 18.7578 15.5 18.7669 15.5182C18.8853 15.6364 19.0675 15.8182 19.1221 15.8727C19.1312 15.8818 19.1403 15.9 19.1403 15.9091V16C19.1403 16 19.1403 16.0273 19.1585 16.0364L19.3589 16.2364C19.3589 16.2364 19.3862 16.2546 19.3953 16.2546H19.4773C19.4773 16.2546 19.5046 16.2546 19.5137 16.2364C19.5228 16.2182 19.5319 16.2091 19.5319 16.2C19.5319 16.1546 19.5319 16.0909 19.5319 16.0546C19.5319 16.0364 19.5319 16.0273 19.5137 16.0182L19.5319 16.0273Z" fill="#19213D"/>
<path d="M14.9868 16.9909C14.9322 16.9727 14.8686 16.9818 14.8322 17.0182C14.7595 17.0909 14.6868 17.1636 14.6413 17.2091C14.6141 17.2363 14.5959 17.2727 14.5959 17.3091V17.7454C14.5959 17.7454 14.5959 17.7818 14.6141 17.7909L14.6322 17.8091C14.6595 17.8363 14.6959 17.8545 14.7322 17.8545C14.7686 17.8545 14.805 17.8363 14.8322 17.8091C14.8595 17.7818 14.8868 17.7545 14.905 17.7363C14.9322 17.7091 14.9504 17.6727 14.9504 17.6363V17.5545C14.9504 17.5545 14.9686 17.4818 14.9959 17.4545C15.005 17.4454 15.0232 17.4273 15.0322 17.4182C15.0595 17.3909 15.0777 17.3545 15.0777 17.3182V17.1182C15.0777 17.0636 15.0413 17.0091 14.9868 16.9909Z" fill="#19213D"/>
<path d="M21.8634 10.4182C21.8634 10.4182 21.8634 10.3818 21.8634 10.3545C21.0619 5.61818 16.9545 2 11.9818 2C10.4973 2 9.09472 2.32727 7.82878 2.90909H7.76503C7.76503 2.90909 7.69217 2.92727 7.66485 2.95455L7.59199 3.02727C7.06375 3.28182 6.57195 3.58182 6.10747 3.92727C5.35155 4.48182 4.6776 5.13636 4.09472 5.87273C3.66667 6.42727 3.29326 7.02727 2.98361 7.66364C2.90164 7.84545 2.81056 8.01818 2.7377 8.2C2.59199 8.54545 2.47359 8.90909 2.37341 9.27273C2.37341 9.28182 2.37341 9.29091 2.37341 9.3C2.30055 9.57273 2.22769 9.84545 2.17304 10.1273C2.15483 10.2091 2.14572 10.2909 2.13661 10.3727C2.10018 10.5909 2.06375 10.8091 2.04554 11.0364C2.01821 11.3545 2 11.6727 2 12C2 12.4182 2.03643 12.8273 2.08197 13.2364H2.04554C2.34608 15.6727 3.53005 17.8364 5.26047 19.4C5.47905 19.6 5.71585 19.7909 5.95264 19.9727C7.62842 21.2364 9.71403 22 11.9818 22C17.5191 22 22 17.5273 22 12C22 11.4545 21.9454 10.9364 21.8634 10.4182ZM3.23862 14.5364H3.60291C3.60291 14.5364 3.67577 14.5545 3.7031 14.5818C3.73953 14.6182 3.79417 14.6727 3.8306 14.7091C3.85792 14.7364 3.89435 14.7545 3.93078 14.7545H4.03097C4.03097 14.7545 4.10383 14.7727 4.13115 14.8C4.22222 14.8909 4.42259 15.0909 4.50455 15.1727C4.53188 15.2 4.56831 15.2182 4.60474 15.2182H4.77778C4.77778 15.2182 4.85064 15.2364 4.87796 15.2636C4.90528 15.2909 4.9235 15.3273 4.9235 15.3636V15.5364C4.9235 15.5364 4.90528 15.6091 4.87796 15.6364C4.83242 15.6818 4.74135 15.7727 4.69581 15.8182C4.66849 15.8455 4.65027 15.8818 4.65027 15.9182V16.3909C4.65027 16.3909 4.66849 16.4636 4.69581 16.4909C4.84153 16.6364 5.32423 17.1182 5.46995 17.2545C5.49727 17.2818 5.51548 17.3182 5.51548 17.3545V18.4091C4.45902 17.3455 3.66667 16.0182 3.23862 14.5455V14.5364ZM11.9818 21.0909C9.85064 21.0909 7.88342 20.3455 6.33516 19.1182L7.9745 17.4818C7.9745 17.4818 8.02004 17.4182 8.02004 17.3818V16.9455C8.02004 16.9455 8.03825 16.8727 8.06557 16.8455C8.12933 16.7818 8.23862 16.6727 8.30237 16.6091C8.32969 16.5818 8.34791 16.5455 8.34791 16.5091V16.3909C8.34791 16.3909 8.32969 16.3182 8.30237 16.2909C8.23862 16.2273 8.12933 16.1182 8.06557 16.0545C8.03825 16.0273 8.00182 16.0091 7.96539 16.0091H7.50091C7.50091 16.0091 7.42805 15.9909 7.40073 15.9636L6.34426 14.9091C6.34426 14.9091 6.28051 14.8636 6.24408 14.8636H5.35155C5.35155 14.8636 5.27869 14.8818 5.25137 14.9091C5.24226 14.9182 5.22404 14.9364 5.21494 14.9455C5.18761 14.9727 5.15118 14.9909 5.11475 14.9909H4.76867C4.76867 14.9909 4.69581 14.9727 4.66849 14.9455C4.55009 14.8273 4.20401 14.4818 4.08561 14.3636C4.05829 14.3364 4.02186 14.3182 3.98543 14.3182H3.63024C3.63024 14.3182 3.55738 14.3 3.53005 14.2727C3.49362 14.2364 3.43898 14.1818 3.40255 14.1455C3.37523 14.1182 3.35701 14.0818 3.35701 14.0455V13.6727C3.35701 13.6727 3.37523 13.6 3.40255 13.5727L3.63934 13.3364C3.63934 13.3364 3.7031 13.2909 3.73953 13.2909H4.39526C4.39526 13.2909 4.46812 13.3091 4.49545 13.3364C4.52277 13.3636 4.54098 13.4 4.54098 13.4364V13.4818C4.54098 13.4818 4.54098 13.5 4.55009 13.5091C4.58652 13.5455 4.63206 13.5545 4.6776 13.5364C4.72313 13.5182 4.75046 13.4727 4.75046 13.4273V13.2273C4.75046 13.2273 4.76867 13.1545 4.79599 13.1273C4.85064 13.0727 4.95993 12.9636 5.01457 12.9091C5.04189 12.8818 5.06011 12.8455 5.06011 12.8091V12.6545C5.06011 12.6545 5.07832 12.5818 5.10565 12.5545C5.26047 12.4 5.80692 11.8545 5.96175 11.7C5.98907 11.6727 6.00729 11.6364 6.00729 11.6V11.3364C6.00729 11.2545 6.07104 11.1909 6.15301 11.1909H6.41712C6.41712 11.1909 6.48998 11.1727 6.5173 11.1455C6.55373 11.1091 6.60838 11.0545 6.64481 11.0182C6.67213 10.9909 6.69035 10.9545 6.69035 10.9182C6.69035 10.9182 6.68124 10.8545 6.65392 10.8273C6.59016 10.7636 6.45355 10.6182 6.38069 10.5545C6.35337 10.5273 6.33516 10.4909 6.33516 10.4545V10.1727C6.33516 10.1727 6.31694 10.1 6.28962 10.0727L6.13479 9.91818C6.13479 9.91818 6.07104 9.87273 6.03461 9.87273C5.99818 9.87273 5.96175 9.89091 5.93443 9.91818C5.9071 9.94545 5.87067 9.96364 5.83424 9.96364C5.79781 9.96364 5.76138 9.94545 5.73406 9.91818C5.61566 9.8 5.42441 9.60909 5.33333 9.51818C5.30601 9.49091 5.26958 9.47273 5.23315 9.47273H4.98725C4.90528 9.47273 4.84153 9.53636 4.84153 9.61818V10.8C4.84153 10.8 4.82332 10.8727 4.79599 10.9C4.76867 10.9273 4.73224 10.9455 4.69581 10.9455H4.59563C4.59563 10.9455 4.52277 10.9273 4.49545 10.9C4.34062 10.7455 3.82149 10.2273 3.67577 10.0818C3.64845 10.0545 3.63024 10.0182 3.63024 9.98182V9.74546C3.63024 9.74546 3.64845 9.67273 3.67577 9.64545C3.78506 9.53636 4.0674 9.25455 4.17669 9.14545C4.20401 9.11818 4.22222 9.08182 4.22222 9.04545V8.55455C4.22222 8.55455 4.20401 8.48182 4.17669 8.45455L3.89435 8.17273C3.89435 8.17273 3.80328 8.13636 3.75774 8.14545C3.86703 7.91818 3.97632 7.69091 4.10383 7.48182C4.4408 7.81818 4.84153 8.21818 4.96903 8.34545C4.99636 8.37273 5.01457 8.40909 5.01457 8.44546V8.62727C5.01457 8.62727 5.03279 8.7 5.06011 8.72727C5.22404 8.89091 5.85246 9.51818 5.85246 9.51818C5.85246 9.51818 6.03461 9.33636 6.11658 9.25455C6.1439 9.22727 6.16211 9.19091 6.16211 9.15455V8.70909C6.16211 8.70909 6.1439 8.63636 6.11658 8.60909C6.05282 8.54545 5.95264 8.44545 5.88889 8.38182C5.86157 8.35455 5.84335 8.31818 5.84335 8.28182V7.96364C5.84335 7.96364 5.82514 7.89091 5.79781 7.86364C5.64299 7.70909 5.12386 7.19091 4.96903 7.03636C4.94171 7.00909 4.90528 6.99091 4.86885 6.99091H4.41348C4.54098 6.8 4.66849 6.62727 4.8051 6.44545C4.82332 6.44545 4.84153 6.46364 4.85975 6.45455C4.91439 6.43636 4.95082 6.38182 4.95082 6.32727V6.26364C5.16029 6.00909 5.37887 5.76364 5.60656 5.53636V5.9C5.60656 5.9 5.62477 5.97273 5.6521 6C5.85246 6.2 6.68124 7.02727 6.8725 7.21818C6.89982 7.24545 6.91803 7.28182 6.91803 7.31818V9.01818C6.91803 9.01818 6.93625 9.09091 6.96357 9.11818L7.51002 9.66364C7.51002 9.66364 7.6102 9.71818 7.66485 9.69091C7.71949 9.67273 7.75592 9.61818 7.75592 9.56364V9.31818C7.75592 9.31818 7.77413 9.24545 7.80146 9.21818C8.03825 8.98182 9.21312 7.80909 9.44991 7.57273C9.47723 7.54545 9.49545 7.50909 9.49545 7.47273V5.33636C9.49545 5.33636 9.51366 5.26364 9.54098 5.23636C9.64117 5.13636 9.90528 4.87273 10.0055 4.77273C10.0328 4.74545 10.051 4.70909 10.051 4.67273V4.1C10.051 4.1 10.0328 4.02727 10.0055 4C9.97814 3.97273 9.94171 3.95455 9.90528 3.95455H9.52277C9.52277 3.95455 9.44991 3.93636 9.42259 3.90909C9.39526 3.88182 9.37705 3.84545 9.37705 3.80909V3.28182C10.224 3.02727 11.1166 2.88182 12.0455 2.88182C14.7869 2.88182 17.2459 4.10909 18.9217 6.02727C18.8944 6.02727 18.867 6.03636 18.8488 6.06364C18.6576 6.25455 17.847 7.06364 17.6466 7.26364C17.6193 7.29091 17.5829 7.30909 17.5464 7.30909H16.6812C16.6812 7.30909 16.6084 7.32727 16.5811 7.35455L15.6521 8.28182C15.6521 8.28182 15.5883 8.32727 15.5519 8.32727H14.2313C14.2313 8.32727 14.1585 8.30909 14.1311 8.28182C14.031 8.18182 13.776 7.92727 13.6758 7.82727C13.6485 7.8 13.612 7.78182 13.5756 7.78182H13.1566C13.1566 7.78182 13.0838 7.8 13.0565 7.82727L11.6903 9.19091C11.6903 9.19091 11.6448 9.25455 11.6448 9.29091V9.8C11.6448 9.8 11.663 9.87273 11.6903 9.9C11.7905 10 12.0455 10.2545 12.1913 10.4C12.2459 10.4545 12.337 10.4545 12.3916 10.4C12.4736 10.3182 12.5738 10.2182 12.6375 10.1545C12.6648 10.1273 12.6831 10.0909 12.6831 10.0545V9.4C12.6831 9.4 12.7013 9.32727 12.7286 9.3C12.8106 9.21818 13.0018 9.02727 13.0474 8.98182C13.0474 8.98182 13.0656 8.97273 13.0747 8.97273C13.1111 8.97273 13.1384 8.99091 13.1475 9.02727C13.1566 9.05455 13.1475 9.09091 13.1293 9.11818C13.0656 9.18182 12.9927 9.25455 12.9563 9.3C12.929 9.32727 12.9107 9.36364 12.9107 9.4V9.57273C12.9107 9.57273 12.929 9.64545 12.9563 9.67273C12.9836 9.7 13.02 9.73636 13.0474 9.76364C13.0747 9.79091 13.0929 9.82727 13.0929 9.86364V10.3C13.0929 10.3 13.0747 10.3727 13.0474 10.4C12.9654 10.4818 12.8015 10.6455 12.7286 10.7182C12.7013 10.7455 12.6648 10.7636 12.6284 10.7636H11.8087C11.8087 10.7636 11.7359 10.7818 11.7086 10.8091C11.5902 10.9273 11.2441 11.2727 11.1257 11.3909C11.0984 11.4182 11.0801 11.4545 11.0801 11.4909V11.8545C11.0801 11.8545 11.0619 11.9273 11.0346 11.9545C11.0073 11.9818 10.9709 12 10.9344 12H10.6521C10.6521 12 10.5792 12.0182 10.5519 12.0455C10.5246 12.0727 10.5064 12.1091 10.5064 12.1455V12.5273C10.5064 12.5273 10.5246 12.6 10.5519 12.6273C10.5792 12.6545 10.6157 12.6727 10.6521 12.6727H10.9709C10.9709 12.6727 11.0437 12.6545 11.071 12.6273C11.1985 12.5 11.5719 12.1273 11.6995 12C11.7268 11.9727 11.7632 11.9545 11.7996 11.9545H11.9545C11.9545 11.9545 12.0273 11.9727 12.0546 12L12.3825 12.3273C12.3825 12.3273 12.4463 12.3636 12.4827 12.3455C12.5191 12.3273 12.5373 12.3 12.5373 12.2636V12.2455C12.5009 12.2091 12.2823 11.9909 12.2277 11.9364C12.2277 11.9364 12.2186 11.9182 12.2186 11.9091C12.2186 11.8727 12.2368 11.8364 12.2732 11.8273C12.3097 11.8182 12.3461 11.8273 12.3734 11.8455C12.51 11.9818 12.7013 12.1727 12.7832 12.2545C12.8106 12.2818 12.8288 12.3182 12.8288 12.3545V12.6727C12.8652 12.6364 13.5665 11.9364 13.7486 11.7545C13.776 11.7273 13.8124 11.7091 13.8488 11.7091H14.0856C14.0856 11.7091 14.1585 11.7273 14.1858 11.7545C14.2587 11.8273 14.4226 11.9909 14.4863 12.0545C14.5046 12.0727 14.5137 12.1 14.5137 12.1273C14.5137 12.1636 14.5046 12.1909 14.4772 12.2182C14.4499 12.2455 14.4226 12.2545 14.3862 12.2545H13.6302C13.6302 12.2545 13.5574 12.2727 13.5301 12.3C13.4572 12.3727 13.3115 12.5182 13.3024 12.5273C13.3024 12.5273 13.4572 12.6818 13.5301 12.7545C13.5574 12.7818 13.5938 12.8 13.6302 12.8H13.8852C13.9672 12.8 14.031 12.8636 14.031 12.9455V13.1182C14.031 13.2 13.9672 13.2636 13.8852 13.2636H12.5556C12.5556 13.2636 12.4827 13.2455 12.4554 13.2182C12.3825 13.1455 12.2186 12.9818 12.1457 12.9091C12.1184 12.8818 12.082 12.8636 12.0455 12.8636H10.9709C10.9709 12.8636 10.898 12.8818 10.8707 12.9091C10.7067 13.0727 10.0874 13.6909 9.91439 13.8636C9.88707 13.8909 9.86885 13.9273 9.86885 13.9636V14.7364C9.86885 14.7364 9.88707 14.8091 9.91439 14.8364C10.0237 14.9455 10.3424 15.2636 10.4517 15.3727C10.4791 15.4 10.5155 15.4182 10.5519 15.4182H11.8543C11.8543 15.4182 11.9271 15.4364 11.9545 15.4636C11.9818 15.4909 12 15.5273 12 15.5636V17.0273C12 17.0273 12.0182 17.1 12.0455 17.1273C12.1093 17.1909 12.2277 17.3091 12.2914 17.3727C12.3188 17.4 12.337 17.4364 12.337 17.4727V18.2909C12.337 18.2909 12.3552 18.3636 12.3825 18.3909L12.6284 18.6364C12.6284 18.6364 12.6922 18.6818 12.7286 18.6818H13.2204C13.2204 18.6818 13.2933 18.6636 13.3206 18.6364L13.9945 17.9636C13.9945 17.9636 14.0401 17.9 14.0401 17.8636V17.4636C14.0401 17.4636 14.0583 17.3909 14.0856 17.3636L14.459 16.9909C14.459 16.9909 14.5046 16.9273 14.5046 16.8909V16.0909C14.5046 16.0909 14.5228 16.0182 14.5501 15.9909L15.2605 15.2818C15.2605 15.2818 15.306 15.2182 15.306 15.1818V14.8727C15.306 14.8727 15.2878 14.8 15.2605 14.7727C15.2332 14.7455 15.1967 14.7273 15.1603 14.7273H14.6958C14.6958 14.7273 14.623 14.7091 14.5956 14.6818C14.5046 14.5909 14.2951 14.3818 14.204 14.2909C14.1767 14.2636 14.1585 14.2273 14.1585 14.1909V14.0273C14.1585 14.0273 14.1403 13.9545 14.1129 13.9273C14.0765 13.8909 14.0128 13.8273 13.9672 13.7818C13.9399 13.7545 13.9217 13.7182 13.9217 13.6818C13.9217 13.6455 13.9399 13.6091 13.9672 13.5818C14.0128 13.5364 14.0492 13.5 14.0492 13.5C14.0492 13.5 14.3133 13.7636 14.4135 13.8636C14.4408 13.8909 14.459 13.9273 14.459 13.9636V14.2C14.459 14.2 14.4772 14.2727 14.5046 14.3C14.5683 14.3636 14.6958 14.4909 14.7596 14.5545C14.7869 14.5818 14.8233 14.6 14.8597 14.6H15.3151C15.3151 14.6 15.388 14.5818 15.4153 14.5545C15.5155 14.4545 15.7523 14.2182 15.898 14.0727C15.9526 14.0182 15.9526 13.9273 15.898 13.8727C15.898 13.8727 15.898 13.8727 15.8889 13.8636C15.8616 13.8364 15.8251 13.8182 15.7887 13.8182H15.4244C15.4244 13.8182 15.3515 13.8 15.3242 13.7727C15.2969 13.7455 15.2605 13.7091 15.224 13.6727C15.1876 13.6364 15.1785 13.5909 15.1967 13.5455C15.2149 13.5 15.2514 13.4727 15.306 13.4727H15.3242C15.3424 13.4909 15.4062 13.5545 15.4517 13.6C15.4791 13.6273 15.5155 13.6455 15.5519 13.6455H15.8069C15.8069 13.6455 15.8798 13.6636 15.9071 13.6909C15.9071 13.6909 15.9162 13.7 15.9253 13.7091C15.9526 13.7364 15.9891 13.7545 16.0255 13.7545H16.49C16.49 13.7545 16.5628 13.7727 16.5902 13.8L17.0911 14.3C17.0911 14.3 17.1366 14.3636 17.1366 14.4V14.5818C17.1366 14.5818 17.1548 14.6545 17.1821 14.6818C17.1821 14.6818 17.2004 14.7 17.2095 14.7C17.2368 14.7273 17.255 14.7636 17.255 14.8V14.8636C17.255 14.8636 17.2732 14.9364 17.3005 14.9636C17.3188 14.9818 17.3461 15.0091 17.3734 15.0364C17.4281 15.0909 17.5191 15.0909 17.5738 15.0364C17.6011 15.0091 17.6193 14.9909 17.6466 14.9636C17.674 14.9364 17.6922 14.9 17.6922 14.8636V14.6364C17.6922 14.6364 17.7104 14.5636 17.7377 14.5364C17.8379 14.4364 18.0838 14.1909 18.184 14.0909C18.2113 14.0636 18.2477 14.0455 18.2842 14.0455H18.5118C18.5118 14.0455 18.5847 14.0636 18.612 14.0909C18.7668 14.2455 19.3224 14.8 19.5592 15.0364C19.5865 15.0636 19.6229 15.0818 19.6594 15.0818C19.6958 15.0818 19.7322 15.0636 19.7596 15.0364C19.8142 14.9818 19.8871 14.9091 19.9508 14.8455C19.9781 14.8182 19.9964 14.7818 19.9964 14.7455C19.9964 14.7091 19.9781 14.6727 19.9508 14.6455C19.8962 14.5909 19.8324 14.5273 19.7778 14.4727C19.7505 14.4455 19.7322 14.4091 19.7322 14.3727C19.7322 14.3364 19.7505 14.3 19.7778 14.2727L20.0146 14.0364C20.0146 14.0364 20.0783 13.9909 20.1148 13.9909H20.4608C20.4608 13.9909 20.5337 13.9727 20.561 13.9455L20.8707 13.6364C20.8707 13.6364 20.9162 13.5727 20.9162 13.5364V12.5364C20.9162 12.4545 20.98 12.3909 21.0619 12.3909H21.1439C21.1439 12.3909 21.2168 12.4091 21.2441 12.4273C21.2168 13.0818 21.1166 13.7182 20.9526 14.3273H20.9253C20.9253 14.3273 20.8707 14.3545 20.8707 14.3818V14.6182C20.8707 14.6182 20.8707 14.6273 20.8707 14.6364C20.8069 14.8545 20.725 15.0636 20.643 15.2727C20.643 15.2727 20.643 15.2727 20.6248 15.2727C20.6066 15.2727 20.5975 15.2727 20.5883 15.2909C20.4973 15.3818 20.2787 15.6 20.2149 15.6636C20.2058 15.6727 20.1876 15.6818 20.1785 15.6818H20.0601C20.0601 15.6818 20.0328 15.6818 20.0237 15.7C20.0146 15.7182 20.0055 15.7273 20.0055 15.7364V15.8545C20.0055 15.8545 20.0055 15.8818 20.0237 15.8909C20.0601 15.9273 20.1603 16.0273 20.2058 16.0727C20.2149 16.0818 20.2332 16.0909 20.2423 16.0909H20.2878C18.7851 19.0455 15.7158 21.0818 12.173 21.0818L11.9818 21.0909ZM15.0237 12.2091C15.0237 12.2091 14.9326 12.1182 14.8962 12.0818C14.8689 12.0545 14.8506 12.0182 14.8506 11.9818V11.9273C14.8506 11.9273 14.8689 11.8545 14.8962 11.8273C14.9417 11.7818 15.0237 11.7 15.0692 11.6545C15.0965 11.6273 15.133 11.6091 15.1694 11.6091H15.2149C15.2149 11.6091 15.2787 11.6182 15.306 11.6455C15.3333 11.6727 15.3424 11.7 15.3424 11.7364V11.7545C15.3424 11.7545 15.3424 11.7727 15.3333 11.7818L15.2605 11.8545C15.2058 11.9091 15.2058 12 15.2605 12.0545C15.2969 12.0909 15.3424 12.1364 15.3698 12.1636C15.3971 12.1909 15.4153 12.2273 15.4153 12.2636V12.5727C15.4153 12.5727 15.3971 12.6455 15.3789 12.6636C15.3515 12.6909 15.3242 12.7 15.2878 12.7H15.2605C15.2605 12.7 15.2332 12.7 15.224 12.6818L15.1148 12.5727C15.1148 12.5727 15.0692 12.5091 15.0692 12.4727V12.3C15.0692 12.3 15.051 12.2273 15.0237 12.2V12.2091Z" stroke="#19213D" stroke-width="2" mask="url(#path-2-inside-1_7477_98)"/>
<path d="M10.7887 10.6C10.7887 10.6 10.8343 10.6637 10.8343 10.7V10.8637C10.8343 10.8637 10.816 10.9364 10.7887 10.9637C10.7614 10.9909 10.7341 11.0182 10.725 11.0273C10.725 11.0273 10.725 11.0273 10.725 11.0364C10.725 11.0909 10.7523 11.1273 10.7887 11.1455C10.8252 11.1637 10.8707 11.1455 10.898 11.1273C10.9071 11.1182 10.9162 11.1091 10.9344 11.1091H11.0711C11.0711 11.1091 11.1439 11.0909 11.1712 11.0637C11.1986 11.0364 11.2168 11 11.2168 10.9637V10.8909C11.2168 10.8909 11.1986 10.8182 11.1712 10.7909C11.1348 10.7546 11.0893 10.7091 11.0528 10.6728C11.0255 10.6455 11.0073 10.6091 11.0073 10.5728V10.3728C11.0073 10.2909 10.9436 10.2273 10.8616 10.2273H10.8343V10.1727C10.8343 10.1727 10.7978 10.0909 10.7523 10.0909C10.6977 10.0909 10.6612 10.1364 10.6612 10.1818V10.4C10.6612 10.4 10.6794 10.4728 10.7068 10.5C10.7341 10.5273 10.7705 10.5637 10.7978 10.5909L10.7887 10.6Z" stroke="#19213D" stroke-width="2" mask="url(#path-2-inside-1_7477_98)"/>
<path d="M10.4148 11.0636C10.4148 11.0636 10.4784 11.0545 10.4966 11.0272L10.5875 10.9363C10.5875 10.9363 10.633 10.8727 10.633 10.8363V10.709C10.633 10.709 10.6239 10.6454 10.5966 10.6272C10.5784 10.609 10.542 10.5909 10.5148 10.5909H10.4784C10.4602 10.609 10.4057 10.6636 10.3693 10.7C10.342 10.7272 10.3239 10.7636 10.3239 10.8V10.9909C10.3239 10.9909 10.3239 11.0181 10.333 11.0181C10.3511 11.0363 10.3875 11.0545 10.4148 11.0545V11.0636Z" stroke="#19213D" stroke-width="2" mask="url(#path-2-inside-1_7477_98)"/>
<path d="M19.5319 16.0273L18.94 15.4364C18.94 15.4364 18.9126 15.4182 18.9035 15.4182H18.8125C18.8125 15.4182 18.7669 15.4364 18.7578 15.4546C18.7578 15.4727 18.7578 15.5 18.7669 15.5182C18.8853 15.6364 19.0675 15.8182 19.1221 15.8727C19.1312 15.8818 19.1403 15.9 19.1403 15.9091V16C19.1403 16 19.1403 16.0273 19.1585 16.0364L19.3589 16.2364C19.3589 16.2364 19.3862 16.2546 19.3953 16.2546H19.4773C19.4773 16.2546 19.5046 16.2546 19.5137 16.2364C19.5228 16.2182 19.5319 16.2091 19.5319 16.2C19.5319 16.1546 19.5319 16.0909 19.5319 16.0546C19.5319 16.0364 19.5319 16.0273 19.5137 16.0182L19.5319 16.0273Z" stroke="#19213D" stroke-width="2" mask="url(#path-2-inside-1_7477_98)"/>
<path d="M14.9868 16.9909C14.9322 16.9727 14.8686 16.9818 14.8322 17.0182C14.7595 17.0909 14.6868 17.1636 14.6413 17.2091C14.6141 17.2363 14.5959 17.2727 14.5959 17.3091V17.7454C14.5959 17.7454 14.5959 17.7818 14.6141 17.7909L14.6322 17.8091C14.6595 17.8363 14.6959 17.8545 14.7322 17.8545C14.7686 17.8545 14.805 17.8363 14.8322 17.8091C14.8595 17.7818 14.8868 17.7545 14.905 17.7363C14.9322 17.7091 14.9504 17.6727 14.9504 17.6363V17.5545C14.9504 17.5545 14.9686 17.4818 14.9959 17.4545C15.005 17.4454 15.0232 17.4273 15.0322 17.4182C15.0595 17.3909 15.0777 17.3545 15.0777 17.3182V17.1182C15.0777 17.0636 15.0413 17.0091 14.9868 16.9909Z" stroke="#19213D" stroke-width="2" mask="url(#path-2-inside-1_7477_98)"/>
<circle cx="12" cy="12" r="9.25" stroke="#19213D" stroke-width="1.5"/>
</g>
</svg>
