<svg width="18" height="18" viewBox="0 0 18 18" fill="none" xmlns="http://www.w3.org/2000/svg">
<mask id="mask0_7003_337" style="mask-type:alpha" maskUnits="userSpaceOnUse" x="0" y="0" width="18" height="18">
<rect width="18" height="18" fill="#D9D9D9"/>
</mask>
<g mask="url(#mask0_7003_337)">
<path d="M9.2063 12.9844C9.2688 12.9406 9.31255 12.8875 9.33755 12.825L9.41255 12.6937C9.70005 12.1312 10.0719 11.6844 10.5282 11.3531C10.9844 11.0219 11.3875 10.5937 11.7375 10.0687C11.9125 9.80624 12.0469 9.51874 12.1407 9.20624C12.2344 8.89374 12.2813 8.56874 12.2813 8.23124C12.2813 7.25624 11.9219 6.44061 11.2032 5.78436C10.4844 5.12811 9.62505 4.85624 8.62505 4.96874C7.86255 5.05624 7.20942 5.37186 6.66567 5.91561C6.12192 6.45936 5.8063 7.11249 5.7188 7.87499C5.6688 8.27499 5.6938 8.66249 5.7938 9.03749C5.8938 9.41249 6.05005 9.75624 6.26255 10.0687C6.61255 10.5937 7.01567 11.0219 7.47192 11.3531C7.92817 11.6844 8.30005 12.1312 8.58755 12.6937L8.66255 12.825C8.68755 12.8875 8.7313 12.9406 8.7938 12.9844C8.8563 13.0281 8.92505 13.05 9.00005 13.05C9.07505 13.05 9.1438 13.0281 9.2063 12.9844ZM8.0438 9.20624C7.7813 8.94374 7.65005 8.62499 7.65005 8.24999C7.65005 7.87499 7.7813 7.55624 8.0438 7.29374C8.3063 7.03124 8.62505 6.89999 9.00005 6.89999C9.37505 6.89999 9.6938 7.03124 9.9563 7.29374C10.2188 7.55624 10.35 7.87499 10.35 8.24999C10.35 8.62499 10.2188 8.94374 9.9563 9.20624C9.6938 9.46874 9.37505 9.59999 9.00005 9.59999C8.62505 9.59999 8.3063 9.46874 8.0438 9.20624ZM9.00005 16.2C8.01255 16.2 7.0813 16.0125 6.2063 15.6375C5.3313 15.2625 4.56567 14.7469 3.90942 14.0906C3.25317 13.4344 2.73755 12.6687 2.36255 11.7937C1.98755 10.9187 1.80005 9.98749 1.80005 8.99999C1.80005 7.99999 1.98755 7.06561 2.36255 6.19686C2.73755 5.32811 3.25317 4.56561 3.90942 3.90936C4.56567 3.25311 5.3313 2.73749 6.2063 2.36249C7.0813 1.98749 8.01255 1.79999 9.00005 1.79999C10 1.79999 10.9344 1.98749 11.8032 2.36249C12.6719 2.73749 13.4344 3.25311 14.0907 3.90936C14.7469 4.56561 15.2625 5.32811 15.6375 6.19686C16.0125 7.06561 16.2 7.99999 16.2 8.99999C16.2 9.98749 16.0125 10.9187 15.6375 11.7937C15.2625 12.6687 14.7469 13.4344 14.0907 14.0906C13.4344 14.7469 12.6719 15.2625 11.8032 15.6375C10.9344 16.0125 10 16.2 9.00005 16.2Z" fill="#0475F4"/>
</g>
</svg>
