<svg width="20" height="20" viewBox="0 0 20 20" fill="none" xmlns="http://www.w3.org/2000/svg">
<mask id="mask0_7003_414" style="mask-type:alpha" maskUnits="userSpaceOnUse" x="0" y="0" width="20" height="20">
<rect width="20" height="20" fill="#D9D9D9"/>
</mask>
<g mask="url(#mask0_7003_414)">
<path d="M3 13.119V6.88188C3 6.65507 3.0759 6.47222 3.22771 6.33333C3.37965 6.19444 3.55681 6.125 3.75917 6.125C3.8225 6.125 3.88542 6.13542 3.94792 6.15625C4.01042 6.17708 4.07639 6.20833 4.14583 6.25L9.02083 9.375C9.13194 9.45056 9.21528 9.54187 9.27083 9.64896C9.32639 9.75604 9.35417 9.87257 9.35417 9.99854C9.35417 10.1245 9.32639 10.2414 9.27083 10.3492C9.21528 10.4569 9.13194 10.5489 9.02083 10.625L4.14583 13.75C4.07639 13.7917 4.01042 13.8229 3.94792 13.8438C3.88542 13.8646 3.8225 13.875 3.75917 13.875C3.55681 13.875 3.37965 13.8057 3.22771 13.6671C3.0759 13.5285 3 13.3458 3 13.119ZM11 13.119V6.88188C11 6.65507 11.0759 6.47222 11.2277 6.33333C11.3797 6.19444 11.5568 6.125 11.7592 6.125C11.8225 6.125 11.8854 6.13542 11.9479 6.15625C12.0104 6.17708 12.0764 6.20833 12.1458 6.25L17.0208 9.375C17.1319 9.45056 17.2153 9.54187 17.2708 9.64896C17.3264 9.75604 17.3542 9.87257 17.3542 9.99854C17.3542 10.1245 17.3264 10.2414 17.2708 10.3492C17.2153 10.4569 17.1319 10.5489 17.0208 10.625L12.1458 13.75C12.0764 13.7917 12.0104 13.8229 11.9479 13.8438C11.8854 13.8646 11.8225 13.875 11.7592 13.875C11.5568 13.875 11.3797 13.8057 11.2277 13.6671C11.0759 13.5285 11 13.3458 11 13.119Z" fill="white"/>
</g>
</svg>
