<svg width="30" height="30" viewBox="0 0 30 30" fill="none" xmlns="http://www.w3.org/2000/svg">
<circle cx="15" cy="15" r="15" fill="white"/>
<path d="M21.8217 13.9891C19.513 12.4174 16.5587 13.0565 15.0065 15.4174C13.7087 17.387 11.7522 17.6348 10.9957 17.6348C8.52392 17.6348 6.83479 15.9 6.33261 14.1C6.32609 14.0804 6.32609 14.0674 6.31957 14.0478C6.31305 14.0283 6.30653 14.0087 6.30653 13.9891C6.11087 13.2391 6.0587 12.8804 6.0587 12.0848C6.0587 7.78696 10.4674 3 16.8196 3C23.3217 3 27.0457 7.95 28.0043 10.7022C27.9848 10.6565 27.9717 10.6043 27.9587 10.5587C26.113 5.17826 21.0065 1.30435 15 1.30435C7.44131 1.30435 1.30435 7.43478 1.30435 15C1.30435 21.763 6.18261 27.5478 12.9457 27.5478C18.3391 27.5478 21.9652 24.5217 23.6283 20.3544C24.5413 18.0783 23.8957 15.3978 21.8217 13.9891Z" fill="#003668"/>
<path d="M28.0957 10.9696C27.2935 8.28261 23.5435 3 16.8261 3C10.4739 3 6.06522 7.78696 6.06522 12.0848C6.06522 12.8804 6.11087 13.2391 6.31305 13.9891C6.22826 13.663 6.18913 13.3304 6.18913 13.0109C6.18913 8.53696 10.6696 5.43261 15.2804 5.43261C21.5152 5.43261 26.5761 10.487 26.5761 16.7217C26.5761 21.613 23.7652 25.8457 19.6761 27.8739C24.9326 25.9761 28.6957 20.9283 28.6957 15C28.6957 13.5978 28.5065 12.3652 28.0957 10.9696Z" fill="#E6002D"/>
</svg>
