<svg width="24" height="24" viewBox="0 0 24 24" fill="none" xmlns="http://www.w3.org/2000/svg">
<mask id="mask0_7003_183" style="mask-type:alpha" maskUnits="userSpaceOnUse" x="0" y="0" width="24" height="24">
<rect width="24" height="24" fill="#D9D9D9"/>
</mask>
<g mask="url(#mask0_7003_183)">
<path d="M12 0C12.5521 0 12.9998 0.447912 13 1V2H19C20.6567 2 21.9998 3.34334 22 5V19C22 20.6569 20.6569 22 19 22H13V23C13 23.5523 12.5523 24 12 24C11.4477 24 11 23.5523 11 23V22H5C3.34315 22 2 20.6569 2 19V5C2.00023 3.34334 3.34329 2 5 2H11V1C11.0002 0.447912 11.4479 0 12 0ZM13 20H19C19.5523 20 20 19.5523 20 19V5C19.9998 4.44791 19.5521 4 19 4H13V20Z" fill="#19213D"/>
</g>
</svg>
