<svg width="24" height="24" viewBox="0 0 24 24" fill="none" xmlns="http://www.w3.org/2000/svg">
<mask id="mask0_6752_2287" style="mask-type:alpha" maskUnits="userSpaceOnUse" x="0" y="0" width="24" height="24">
<rect width="24" height="24" fill="#D9D9D9"/>
</mask>
<g mask="url(#mask0_6752_2287)">
<path d="M11.9808 21.1C10.7346 21.1 9.56027 20.8629 8.45777 20.3885C7.35511 19.9142 6.39036 19.2635 5.56352 18.4365C4.73652 17.6097 4.08586 16.6434 3.61152 15.5375C3.13719 14.4317 2.90002 13.2525 2.90002 12C2.90002 10.7309 3.13977 9.54752 3.61927 8.45002C4.09877 7.35252 4.76194 6.38877 5.60877 5.55877C6.45544 4.72861 7.44744 4.07794 8.58478 3.60677C9.72194 3.13561 10.9334 2.90002 12.2193 2.90002C13.4359 2.90002 14.583 3.10902 15.6605 3.52702C16.7382 3.94502 17.6795 4.51844 18.4845 5.24727C19.2897 5.97611 19.9269 6.83028 20.396 7.80978C20.8654 8.78911 21.1 9.84352 21.1 10.973C21.1 12.3872 20.6106 13.6285 19.6318 14.697C18.6529 15.7657 17.3924 16.3 15.85 16.3H14.1885C13.9205 16.3 13.6804 16.3929 13.4683 16.5788C13.2561 16.7648 13.15 17.0014 13.15 17.2885C13.15 17.6475 13.275 17.8895 13.525 18.0145C13.775 18.1395 13.9 18.5347 13.9 19.2C13.9 19.6435 13.7215 20.0711 13.3645 20.4828C13.0074 20.8943 12.5461 21.1 11.9808 21.1ZM7.47977 12.2798C7.72661 12.0329 7.85002 11.7397 7.85002 11.4C7.85002 11.0604 7.72661 10.7671 7.47977 10.5203C7.23294 10.2734 6.93969 10.15 6.60002 10.15C6.26036 10.15 5.96711 10.2734 5.72027 10.5203C5.47344 10.7671 5.35002 11.0604 5.35002 11.4C5.35002 11.7397 5.47344 12.0329 5.72027 12.2798C5.96711 12.5266 6.26036 12.65 6.60002 12.65C6.93969 12.65 7.23294 12.5266 7.47977 12.2798ZM10.4798 8.67978C10.7266 8.43294 10.85 8.13969 10.85 7.80002C10.85 7.46036 10.7266 7.16711 10.4798 6.92027C10.2329 6.67344 9.93969 6.55002 9.60002 6.55002C9.26036 6.55002 8.96711 6.67344 8.72027 6.92027C8.47344 7.16711 8.35003 7.46036 8.35003 7.80002C8.35003 8.13969 8.47344 8.43294 8.72027 8.67978C8.96711 8.92661 9.26036 9.05002 9.60002 9.05002C9.93969 9.05002 10.2329 8.92661 10.4798 8.67978ZM15.2798 8.67978C15.5266 8.43294 15.65 8.13969 15.65 7.80002C15.65 7.46036 15.5266 7.16711 15.2798 6.92027C15.0329 6.67344 14.7397 6.55002 14.4 6.55002C14.0604 6.55002 13.7671 6.67344 13.5203 6.92027C13.2734 7.16711 13.15 7.46036 13.15 7.80002C13.15 8.13969 13.2734 8.43294 13.5203 8.67978C13.7671 8.92661 14.0604 9.05002 14.4 9.05002C14.7397 9.05002 15.0329 8.92661 15.2798 8.67978ZM18.2798 12.2798C18.5266 12.0329 18.65 11.7397 18.65 11.4C18.65 11.0604 18.5266 10.7671 18.2798 10.5203C18.0329 10.2734 17.7397 10.15 17.4 10.15C17.0604 10.15 16.7671 10.2734 16.5203 10.5203C16.2734 10.7671 16.15 11.0604 16.15 11.4C16.15 11.7397 16.2734 12.0329 16.5203 12.2798C16.7671 12.5266 17.0604 12.65 17.4 12.65C17.7397 12.65 18.0329 12.5266 18.2798 12.2798ZM11.9808 19.8C12.1769 19.8 12.3292 19.7308 12.4375 19.5923C12.5459 19.4538 12.6 19.323 12.6 19.2C12.6 18.9334 12.475 18.7129 12.225 18.5385C11.975 18.3642 11.85 17.9668 11.85 17.3463C11.85 16.7001 12.0709 16.1475 12.5125 15.6885C12.9542 15.2295 13.4917 15 14.125 15H15.85C17.027 15 17.9796 14.5927 18.7078 13.778C19.4359 12.9632 19.8 12.0282 19.8 10.973C19.8 9.05002 19.0577 7.44044 17.573 6.14428C16.0885 4.84811 14.3039 4.20002 12.2193 4.20002C9.96677 4.20002 8.06711 4.95836 6.52027 6.47502C4.97344 7.99169 4.20002 9.83336 4.20002 12C4.20002 14.1667 4.95836 16.0084 6.47502 17.525C7.99169 19.0417 9.82694 19.8 11.9808 19.8Z" fill="#0475F4"/>
</g>
</svg>
