<svg width="20" height="20" viewBox="0 0 20 20" fill="none" xmlns="http://www.w3.org/2000/svg">
<mask id="mask0_6752_2612" style="mask-type:alpha" maskUnits="userSpaceOnUse" x="0" y="0" width="20" height="20">
<rect width="20" height="20" fill="#D9D9D9"/>
</mask>
<g mask="url(#mask0_6752_2612)">
<path d="M8.97862 17V16.0419H10.3121V12.4038C10.0734 12.3503 9.85572 12.2502 9.65919 12.1037C9.46253 11.9572 9.30107 11.7804 9.1748 11.5731L7.44219 12.5834L3.11664 11.356V9.33535H9.6014C9.72315 9.21121 9.85923 9.10605 10.0096 9.01988C10.16 8.9336 10.3322 8.88018 10.5261 8.85962V6.01761L13.7843 3L15.5745 4.05459L12.1806 9.59125C12.3278 9.72619 12.44 9.89348 12.5173 10.0931C12.5946 10.2927 12.6158 10.4962 12.5808 10.7035L14.8584 11.2783L17 15.1213L15.5732 16.5577L11.3836 12.4681C11.3606 12.4816 11.3378 12.4928 11.3149 12.5017C11.2921 12.5107 11.267 12.5173 11.2395 12.5218V16.0419H12.573V17H8.97862ZM4.7121 5.22432V4.31849H8.63567V5.22432H4.7121ZM11.4535 6.40345V8.74047C11.4489 8.74047 11.4751 8.74512 11.5323 8.75441C11.5895 8.76381 11.6159 8.76852 11.6113 8.76852L14.3248 4.34845L13.9503 4.15632L11.4535 6.40345ZM3 8.15082V7.245H6.06752V8.15082H3ZM10.7745 11.5625C11.0362 11.5625 11.256 11.476 11.4337 11.3031C11.6116 11.1302 11.7005 10.916 11.7005 10.6605C11.7005 10.4049 11.612 10.1903 11.435 10.0166C11.2579 9.8429 11.0386 9.75604 10.777 9.75604C10.5154 9.75604 10.2956 9.8425 10.1179 10.0154C9.94002 10.1883 9.85108 10.4025 9.85108 10.658C9.85108 10.9136 9.9396 11.1282 10.1166 11.3019C10.2937 11.4756 10.513 11.5625 10.7745 11.5625ZM7.29399 11.5999L8.91692 10.6432C8.90966 10.5842 8.90901 10.5201 8.91496 10.4509C8.9209 10.3817 8.93576 10.3118 8.95954 10.2412H4.04403V10.6767L7.29399 11.5999ZM14.2287 12.0568L12.3657 11.5851C12.3511 11.6226 12.3157 11.6724 12.2594 11.7346C12.2032 11.7967 12.1559 11.8465 12.1175 11.884L15.5349 15.242L15.8738 14.9649L14.2287 12.0568ZM4.7121 15.3277V14.4219H7.77962V15.3277H4.7121Z" fill="#0475F4"/>
</g>
</svg>
