<svg width="20" height="20" viewBox="0 0 20 20" fill="none" xmlns="http://www.w3.org/2000/svg">
<path d="M11.0234 0C11.4537 3.04022e-05 11.8355 0.275424 11.9717 0.683594L12.6133 2.60742C12.6972 2.8588 12.8772 3.06699 13.1143 3.18555L14.374 3.81445C14.6111 3.93292 14.8853 3.95285 15.1367 3.86914L16.9209 3.27441C17.3929 3.11708 17.9092 3.33051 18.1318 3.77539L19.3828 6.27734C19.5933 6.6989 19.4811 7.21037 19.1133 7.50488L17.6191 8.7002C17.3822 8.88994 17.2442 9.17691 17.2441 9.48047V10.5195C17.2442 10.8231 17.3822 11.1101 17.6191 11.2998L19.1133 12.4951C19.4811 12.7896 19.5933 13.3011 19.3828 13.7227L18.1318 16.2246C17.9092 16.6695 17.3929 16.8829 16.9209 16.7256L15.2412 16.166C14.9299 16.0623 14.5877 16.1176 14.3252 16.3145L12.9688 17.332C12.822 17.4421 12.7078 17.5905 12.6396 17.7607L11.9951 19.3711C11.8433 19.7507 11.4762 19.9999 11.0674 20H8.4209C8.0121 19.9999 7.645 19.7507 7.49316 19.3711L6.84863 17.7607C6.78052 17.5905 6.66626 17.4421 6.51953 17.332L5.16309 16.3145C4.90058 16.1176 4.55834 16.0623 4.24707 16.166L2.56738 16.7256C2.09539 16.8829 1.5791 16.6695 1.35645 16.2246L0.158203 13.8281C-0.0753782 13.3608 0.0900751 12.7923 0.538086 12.5234L1.75879 11.791C2.05985 11.6103 2.24414 11.2848 2.24414 10.9336V9.48047C2.24409 9.17692 2.10606 8.88994 1.86914 8.7002L0.375 7.50488C0.00715048 7.21037 -0.105076 6.69891 0.105469 6.27734L1.35645 3.77539C1.5791 3.33051 2.09539 3.11708 2.56738 3.27441L4.35156 3.86914C4.60301 3.95284 4.8772 3.93293 5.11426 3.81445L6.37402 3.18555C6.61103 3.06698 6.7911 2.8588 6.875 2.60742L7.5166 0.683594C7.65279 0.275419 8.03453 1.7413e-05 8.46484 0H11.0234ZM9.74414 7C8.08729 7 6.74414 8.34315 6.74414 10C6.74414 11.6569 8.08729 13 9.74414 13C11.401 13 12.7441 11.6568 12.7441 10C12.7441 8.34315 11.401 7.00001 9.74414 7Z" fill="#0475F4"/>
</svg>
