<svg width="20" height="20" viewBox="0 0 20 20" fill="none" xmlns="http://www.w3.org/2000/svg">
<mask id="mask0_6752_2606" style="mask-type:alpha" maskUnits="userSpaceOnUse" x="0" y="0" width="20" height="20">
<rect width="20" height="20" fill="#D9D9D9"/>
</mask>
<g mask="url(#mask0_6752_2606)">
<path d="M5.33981 15C4.40997 15 3.62091 14.6885 2.97262 14.0655C2.32421 13.4426 2 12.6845 2 11.791C2 10.9175 2.32466 10.1535 2.97398 9.49907C3.62317 8.84471 4.43715 8.52469 5.41592 8.53899C5.64401 7.46461 6.19443 6.60622 7.06718 5.96381C7.94006 5.32127 8.91767 5 10 5C11.2656 5 12.3716 5.38651 13.3181 6.15952C14.2646 6.93265 14.7379 7.9143 14.7379 9.10448V9.47761H14.9769C15.7734 9.4393 16.4764 9.68427 17.0858 10.2125C17.6953 10.7406 18 11.416 18 12.2388C18 13.0042 17.7214 13.6558 17.1643 14.1935C16.6071 14.7312 15.9278 15 15.1262 15H5.33981ZM5.33981 14.0299H15.1262C15.6482 14.0299 16.0893 13.8572 16.4497 13.5118C16.8101 13.1662 16.9903 12.7433 16.9903 12.2431C16.9903 11.7427 16.8101 11.3184 16.4497 10.9701C16.0893 10.6219 15.6482 10.4478 15.1262 10.4478H13.7282V9.10448C13.7282 8.19652 13.356 7.44714 12.6117 6.85634C11.8673 6.26555 10.9968 5.97015 10 5.97015C9.15262 5.97015 8.39061 6.22631 7.71398 6.73862C7.03735 7.25106 6.59942 7.92917 6.40019 8.77295C7.07735 8.96524 7.62654 9.33719 8.04777 9.88881C8.469 10.4404 8.67961 11.0745 8.67961 11.791H7.6699C7.6699 11.1728 7.44207 10.645 6.98641 10.2078C6.53074 9.77077 5.98058 9.55224 5.33592 9.55224C4.69126 9.55224 4.14239 9.77114 3.68932 10.209C3.23625 10.6468 3.00971 11.1754 3.00971 11.7948C3.00971 12.4142 3.23715 12.9415 3.69204 13.3769C4.14705 13.8122 4.69631 14.0299 5.33981 14.0299Z" fill="#0475F4"/>
</g>
</svg>
