<svg width="24" height="24" viewBox="0 0 24 24" fill="none" xmlns="http://www.w3.org/2000/svg">
<mask id="mask0_6752_2431" style="mask-type:alpha" maskUnits="userSpaceOnUse" x="0" y="0" width="24" height="24">
<rect x="1.04907e-06" y="24" width="24" height="24" transform="rotate(-90 1.04907e-06 24)" fill="#D9D9D9"/>
</mask>
<g mask="url(#mask0_6752_2431)">
<path d="M13.0308 12L10.473 14.5577C10.3347 14.6946 10.2655 14.8657 10.2655 15.071C10.2655 15.2762 10.3347 15.4532 10.473 15.602C10.6218 15.757 10.8001 15.8329 11.0078 15.8297C11.2154 15.8266 11.3936 15.7507 11.5423 15.602L14.5115 12.6327C14.6923 12.4519 14.7828 12.241 14.7828 12C14.7828 11.759 14.6923 11.5481 14.5115 11.3672L11.527 8.38274C11.3782 8.23407 11.2025 8.16066 11 8.16249C10.7975 8.16449 10.6218 8.24299 10.473 8.39799C10.3347 8.54682 10.2645 8.72249 10.2625 8.92499C10.2607 9.12749 10.3341 9.30316 10.4828 9.45199L13.0308 12Z" fill="white"/>
</g>
</svg>
