<svg width="24" height="24" viewBox="0 0 24 24" fill="none" xmlns="http://www.w3.org/2000/svg">
<mask id="mask0_7470_361" style="mask-type:alpha" maskUnits="userSpaceOnUse" x="0" y="0" width="24" height="24">
<rect width="24" height="24" fill="#D9D9D9"/>
</mask>
<g mask="url(#mask0_7470_361)">
<path d="M6.1635 21.0193C5.28017 21.0193 4.52892 20.7096 3.90975 20.0903C3.29042 19.4711 2.98075 18.7198 2.98075 17.8365C2.98075 16.9532 3.29042 16.2019 3.90975 15.5828C4.52892 14.9634 5.28017 14.6538 6.1635 14.6538C7.04683 14.6538 7.79808 14.9634 8.41725 15.5828C9.03658 16.2019 9.34625 16.9532 9.34625 17.8365C9.34625 18.1875 9.29042 18.5265 9.17875 18.8535C9.06725 19.1807 8.90317 19.4814 8.6865 19.7558V19.273C9.20567 19.5153 9.74475 19.6971 10.3038 19.8183C10.8628 19.9394 11.4282 20 12 20C14.2333 20 16.125 19.225 17.675 17.675C19.225 16.125 20 14.2333 20 12H21.5C21.5 13.3128 21.2506 14.5473 20.7518 15.7035C20.2531 16.8597 19.5763 17.8653 18.7213 18.7205C17.8663 19.5757 16.8608 20.2528 15.705 20.7518C14.5492 21.2506 13.3142 21.5 12 21.5C11.2698 21.5 10.5559 21.4208 9.85825 21.2625C9.16042 21.1042 8.48458 20.8634 7.83075 20.5403C7.57692 20.7031 7.30842 20.8237 7.02525 20.902C6.74208 20.9802 6.45483 21.0193 6.1635 21.0193ZM7.35575 19.0282C7.68275 18.7009 7.84625 18.3035 7.84625 17.836C7.84625 17.3683 7.68258 16.9711 7.35525 16.6443C7.02792 16.3173 6.6305 16.1538 6.163 16.1538C5.69533 16.1538 5.29808 16.3174 4.97125 16.6448C4.64425 16.9721 4.48075 17.3695 4.48075 17.837C4.48075 18.3047 4.64442 18.7019 4.97175 19.0288C5.29908 19.3558 5.6965 19.5193 6.164 19.5193C6.63167 19.5193 7.02892 19.3556 7.35575 19.0282ZM12 15.1827C11.1167 15.1827 10.3654 14.8731 9.74625 14.2537C9.12692 13.6346 8.81725 12.8833 8.81725 12C8.81725 11.1167 9.12692 10.3654 9.74625 9.74625C10.3654 9.12692 11.1167 8.81725 12 8.81725C12.8833 8.81725 13.6346 9.12692 14.2538 9.74625C14.8731 10.3654 15.1827 11.1167 15.1827 12C15.1827 12.8833 14.8731 13.6346 14.2538 14.2537C13.6346 14.8731 12.8833 15.1827 12 15.1827ZM2.5 12C2.5 10.6872 2.74942 9.45267 3.24825 8.2965C3.74692 7.14033 4.42375 6.13467 5.27875 5.2795C6.13375 4.42433 7.13917 3.74725 8.295 3.24825C9.45083 2.74942 10.6858 2.5 12 2.5C12.7302 2.5 13.4441 2.57917 14.1417 2.7375C14.8396 2.89583 15.5154 3.13658 16.1693 3.45975C16.4259 3.30325 16.6946 3.18592 16.9753 3.10775C17.2559 3.02958 17.543 2.9905 17.8365 2.9905C18.7198 2.9905 19.4695 3.2985 20.0855 3.9145C20.7015 4.5305 21.0095 5.28017 21.0095 6.1635C21.0095 7.04683 20.7015 7.79808 20.0855 8.41725C19.4695 9.03658 18.7198 9.34625 17.8365 9.34625C16.9532 9.34625 16.2019 9.03658 15.5828 8.41725C14.9634 7.79808 14.6538 7.04683 14.6538 6.1635C14.6538 5.8125 14.7096 5.4735 14.8212 5.1465C14.9327 4.81933 15.0968 4.51858 15.3135 4.24425V4.727C14.7943 4.48467 14.2552 4.30292 13.6962 4.18175C13.1372 4.06058 12.5718 4 12 4C9.76667 4 7.875 4.775 6.325 6.325C4.775 7.875 4 9.76667 4 12H2.5ZM17.8365 7.84625C18.3013 7.84625 18.6964 7.68117 19.0217 7.351C19.3469 7.02083 19.5095 6.625 19.5095 6.1635C19.5095 5.702 19.3461 5.30775 19.0193 4.98075C18.6923 4.65392 18.298 4.4905 17.8365 4.4905C17.375 4.4905 16.9792 4.65342 16.649 4.97925C16.3188 5.30525 16.1538 5.70108 16.1538 6.16675C16.1538 6.63258 16.3173 7.02892 16.6445 7.35575C16.9718 7.68275 17.3692 7.84625 17.8365 7.84625Z" fill="#0475F4"/>
</g>
</svg>
