<svg width="20" height="20" viewBox="0 0 20 20" fill="none" xmlns="http://www.w3.org/2000/svg">
<mask id="mask0_7010_3120" style="mask-type:alpha" maskUnits="userSpaceOnUse" x="0" y="0" width="20" height="20">
<rect width="20" height="20" fill="#D9D9D9"/>
</mask>
<g mask="url(#mask0_7010_3120)">
<path d="M15.7083 13.5833L14.5417 12.4375C15.1219 12.2806 15.5934 11.9774 15.956 11.5281C16.3187 11.0788 16.5 10.5694 16.5 10C16.5 9.30556 16.2569 8.71528 15.7708 8.22917C15.2847 7.74306 14.6944 7.5 14 7.5H11V6H14C15.1067 6 16.05 6.39042 16.83 7.17125C17.61 7.95222 18 8.89667 18 10.0046C18 10.7654 17.7951 11.4653 17.3854 12.1042C16.9757 12.7431 16.4167 13.2361 15.7083 13.5833ZM12.875 10.75L11.375 9.25H13V10.75H12.875ZM16 18.125L1.875 4L2.9375 2.9375L17.0625 17.0625L16 18.125ZM9 14H6C4.89333 14 3.95 13.61 3.17 12.83C2.39 12.05 2 11.1067 2 10C2 9.11208 2.26389 8.32063 2.79167 7.62563C3.31944 6.93076 4.06944 6.38194 5.04167 5.97917L6.5 7.5H6.02083C5.3125 7.5 4.71528 7.74306 4.22917 8.22917C3.74306 8.71528 3.5 9.30556 3.5 10C3.5 10.6944 3.74306 11.2847 4.22917 11.7708C4.71528 12.2569 5.30556 12.5 6 12.5H9V14ZM7 10.75V9.25H8.16667L9.64583 10.75H7Z" fill="white"/>
</g>
</svg>
