<svg width="20" height="20" viewBox="0 0 20 20" fill="none" xmlns="http://www.w3.org/2000/svg">
<mask id="mask0_6752_2475" style="mask-type:alpha" maskUnits="userSpaceOnUse" x="0" y="0" width="20" height="20">
<rect width="20" height="20" fill="#D9D9D9"/>
</mask>
<g mask="url(#mask0_6752_2475)">
<path d="M4.19513 9.88253C4.47639 8.91496 5.03978 7.87808 5.88529 6.77189C6.73081 5.66571 7.91583 4.40841 9.44037 3C10.9773 4.47252 12.1655 5.75867 13.0048 6.85844C13.8441 7.95822 14.4044 8.96625 14.6856 9.88253H13.6555C13.4068 9.1773 12.9468 8.38552 12.2753 7.50719C11.6039 6.62886 10.6589 5.56781 9.44037 4.32404C8.22184 5.56781 7.27685 6.62886 6.60541 7.50719C5.93397 8.38552 5.47391 9.1773 5.22523 9.88253H4.19513ZM14.9296 10.8057C14.9726 11.0671 14.9958 11.3291 14.9991 11.592C15.0025 11.8549 14.996 12.1259 14.9797 12.405L10.5134 16.9841C10.2427 17.0009 9.98113 17.0044 9.72872 16.9945C9.47618 16.9846 9.22701 16.9575 8.98118 16.9132L14.9296 10.8057ZM10.9539 11.2673H12.3512L7.28692 16.4633C7.12714 16.3962 6.97433 16.3188 6.82848 16.2309C6.68263 16.1432 6.53752 16.0501 6.39316 15.9515L10.9539 11.2673ZM7.41449 11.2673H8.81202L5.29704 14.8921C5.17071 14.7649 5.06309 14.6337 4.97419 14.4986C4.88528 14.3634 4.79539 14.218 4.70449 14.0622L7.41449 11.2673ZM4.00153 11.2673H5.30562L4.13638 12.4731C4.07794 12.2749 4.03964 12.0759 4.02149 11.8761C4.00334 11.6764 3.99668 11.4735 4.00153 11.2673Z" fill="#0475F4"/>
</g>
</svg>
