<svg width="24" height="24" viewBox="0 0 24 24" fill="none" xmlns="http://www.w3.org/2000/svg">
<mask id="mask0_7003_295" style="mask-type:alpha" maskUnits="userSpaceOnUse" x="0" y="0" width="24" height="24">
<rect width="24" height="24" fill="#D9D9D9"/>
</mask>
<g mask="url(#mask0_7003_295)">
<path d="M6.5 19.5C5.10767 19.5 3.92625 19.0148 2.95575 18.0443C1.98525 17.0738 1.5 15.8923 1.5 14.5C1.5 13.2962 1.893 12.2224 2.679 11.2787C3.46483 10.3352 4.46283 9.77308 5.673 9.59225C6 8.08592 6.7545 6.86067 7.9365 5.9165C9.11867 4.97217 10.4732 4.5 12 4.5C13.8295 4.5 15.3702 5.13458 16.622 6.40375C17.874 7.67308 18.5 9.20517 18.5 11V11.5H18.8078C19.9166 11.582 20.8092 12.0186 21.4855 12.8098C22.1618 13.6008 22.5 14.4892 22.5 15.475C22.5 16.5903 22.1122 17.54 21.3365 18.324C20.5608 19.108 19.6153 19.5 18.5 19.5H6.5ZM6.5 18H18.5C19.2 18 19.7917 17.7583 20.275 17.275C20.7583 16.7917 21 16.2 21 15.5C21 14.8 20.7583 14.2083 20.275 13.725C19.7917 13.2417 19.2 13 18.5 13H17V11C17 9.61667 16.5125 8.4375 15.5375 7.4625C14.5625 6.4875 13.3833 6 12 6C10.8923 6 9.90292 6.33075 9.03175 6.99225C8.16058 7.65392 7.57175 8.50842 7.26525 9.55575C8.43708 9.74675 9.43583 10.2952 10.2615 11.201C11.0872 12.1068 11.5 13.2065 11.5 14.5H10C10 13.5333 9.65833 12.7083 8.975 12.025C8.29167 11.3417 7.46667 11 6.5 11C5.53333 11 4.70833 11.3417 4.025 12.025C3.34167 12.7083 3 13.5333 3 14.5C3 15.4667 3.34167 16.2917 4.025 16.975C4.70833 17.6583 5.53333 18 6.5 18Z" fill="#0475F4"/>
</g>
</svg>
