<svg width="24" height="24" viewBox="0 0 24 24" fill="none" xmlns="http://www.w3.org/2000/svg">
<mask id="mask0_7003_246" style="mask-type:alpha" maskUnits="userSpaceOnUse" x="0" y="0" width="24" height="24">
<rect width="24" height="24" fill="#D9D9D9"/>
</mask>
<g mask="url(#mask0_7003_246)">
<path d="M11.4038 17.5H12.5963V15.3152L14.2962 17.0307L15.15 16.177L12.5963 13.623V12.5963H13.6173L16.1712 15.1558L17.0153 14.302L15.3095 12.5963H17.5095V11.4038H15.3095L17.0153 9.70375L16.1712 8.85L13.6173 11.4038H12.5963V10.3828L15.15 7.82875L14.2962 6.98475L12.5963 8.6905V6.4905H11.4038V8.6905L9.698 6.98475L8.84425 7.82875L11.4038 10.3828V11.4038H10.377L7.823 8.85L6.96925 9.70375L8.68475 11.4038H6.5V12.5963H8.68475L6.96925 14.302L7.823 15.1558L10.377 12.5963H11.4038V13.623L8.84425 16.177L9.698 17.0307L11.4038 15.3152V17.5ZM12.0017 21.5C10.6877 21.5 9.45267 21.2507 8.2965 20.752C7.14033 20.2533 6.13467 19.5766 5.2795 18.7218C4.42433 17.8669 3.74725 16.8617 3.24825 15.706C2.74942 14.5503 2.5 13.3156 2.5 12.0017C2.5 10.6877 2.74933 9.45267 3.248 8.2965C3.74667 7.14033 4.42342 6.13467 5.27825 5.2795C6.13308 4.42433 7.13833 3.74725 8.294 3.24825C9.44967 2.74942 10.6844 2.5 11.9983 2.5C13.3123 2.5 14.5473 2.74933 15.7035 3.248C16.8597 3.74667 17.8653 4.42342 18.7205 5.27825C19.5757 6.13308 20.2528 7.13833 20.7518 8.294C21.2506 9.44967 21.5 10.6844 21.5 11.9983C21.5 13.3123 21.2507 14.5473 20.752 15.7035C20.2533 16.8597 19.5766 17.8653 18.7218 18.7205C17.8669 19.5757 16.8617 20.2528 15.706 20.7518C14.5503 21.2506 13.3156 21.5 12.0017 21.5ZM12 20C14.2333 20 16.125 19.225 17.675 17.675C19.225 16.125 20 14.2333 20 12C20 9.76667 19.225 7.875 17.675 6.325C16.125 4.775 14.2333 4 12 4C9.76667 4 7.875 4.775 6.325 6.325C4.775 7.875 4 9.76667 4 12C4 14.2333 4.775 16.125 6.325 17.675C7.875 19.225 9.76667 20 12 20Z" fill="#0475F4"/>
</g>
</svg>
