<svg width="24" height="24" viewBox="0 0 24 24" fill="none" xmlns="http://www.w3.org/2000/svg">
<mask id="mask0_7859_2836" style="mask-type:alpha" maskUnits="userSpaceOnUse" x="0" y="0" width="24" height="24">
<rect width="24" height="24" fill="#D9D9D9"/>
</mask>
<g mask="url(#mask0_7859_2836)">
<path d="M12.0095 18C13.6761 18 15.0845 17.4151 16.2345 16.2452C17.3845 15.0754 17.973 13.6581 18 11.9933V6H12.0067C10.3419 6.027 8.92456 6.6155 7.75473 7.7655C6.58489 8.9155 5.99998 10.3238 5.99998 11.9905C5.99998 13.6572 6.58422 15.0754 7.75272 16.2452C8.92123 17.4151 10.3401 18 12.0095 18ZM10.675 16.175L15.1462 12.1963L14.8902 11.4635L11.5885 11.152L13.7307 8.1905L13.35 7.775L8.88848 11.7692L9.13473 12.5115L12.4365 12.823L10.2885 15.7692L10.675 16.175ZM12.0095 19.5C11.1016 19.5 10.2465 19.3509 9.44398 19.0527C8.64164 18.7547 7.91348 18.3391 7.25948 17.8057L5.24998 19.8193L4.18073 18.75L6.19423 16.7405C5.66089 16.0865 5.24523 15.3583 4.94723 14.556C4.64906 13.7535 4.49998 12.8983 4.49998 11.9905C4.49998 9.89933 5.22848 8.12817 6.68548 6.677C8.14264 5.22567 9.91689 4.5 12.0082 4.5H19.5V11.9918C19.5 14.0831 18.7743 15.8573 17.323 17.3145C15.8718 18.7715 14.1006 19.5 12.0095 19.5Z" fill="#0475F4"/>
</g>
</svg>
