<svg width="16" height="16" viewBox="0 0 16 16" fill="none" xmlns="http://www.w3.org/2000/svg">
<mask id="mask0_6772_7" style="mask-type:alpha" maskUnits="userSpaceOnUse" x="0" y="0" width="16" height="16">
<rect width="16" height="16" fill="#D9D9D9"/>
</mask>
<g mask="url(#mask0_6772_7)">
<path d="M7.15 8.69998L6.15 7.71664C6.02778 7.59442 5.88889 7.53331 5.73333 7.53331C5.57778 7.53331 5.43889 7.59442 5.31667 7.71664C5.19444 7.83886 5.13333 7.98053 5.13333 8.14164C5.13333 8.30275 5.19444 8.44442 5.31667 8.56664L6.73333 9.98331C6.85555 10.1055 6.99444 10.1666 7.15 10.1666C7.30555 10.1666 7.44444 10.1055 7.56667 9.98331L10.6833 6.86664C10.8056 6.74442 10.8667 6.60275 10.8667 6.44164C10.8667 6.28053 10.8056 6.13886 10.6833 6.01664C10.5611 5.89442 10.4222 5.83331 10.2667 5.83331C10.1111 5.83331 9.97222 5.89442 9.85 6.01664L7.15 8.69998ZM8 14.4C7.12222 14.4 6.29444 14.2333 5.51667 13.9C4.73889 13.5666 4.05833 13.1083 3.475 12.525C2.89167 11.9416 2.43333 11.2611 2.1 10.4833C1.76667 9.70553 1.6 8.87775 1.6 7.99998C1.6 7.11109 1.76667 6.28053 2.1 5.50831C2.43333 4.73609 2.89167 4.05831 3.475 3.47498C4.05833 2.89164 4.73889 2.43331 5.51667 2.09998C6.29444 1.76664 7.12222 1.59998 8 1.59998C8.88889 1.59998 9.71944 1.76664 10.4917 2.09998C11.2639 2.43331 11.9417 2.89164 12.525 3.47498C13.1083 4.05831 13.5667 4.73609 13.9 5.50831C14.2333 6.28053 14.4 7.11109 14.4 7.99998C14.4 8.87775 14.2333 9.70553 13.9 10.4833C13.5667 11.2611 13.1083 11.9416 12.525 12.525C11.9417 13.1083 11.2639 13.5666 10.4917 13.9C9.71944 14.2333 8.88889 14.4 8 14.4ZM8 13.2C9.44444 13.2 10.6722 12.6944 11.6833 11.6833C12.6944 10.6722 13.2 9.44442 13.2 7.99998C13.2 6.55553 12.6944 5.32775 11.6833 4.31664C10.6722 3.30553 9.44444 2.79998 8 2.79998C6.55555 2.79998 5.32778 3.30553 4.31667 4.31664C3.30555 5.32775 2.8 6.55553 2.8 7.99998C2.8 9.44442 3.30555 10.6722 4.31667 11.6833C5.32778 12.6944 6.55555 13.2 8 13.2Z" fill="white"/>
</g>
</svg>
