<svg width="24" height="24" viewBox="0 0 24 24" fill="none" xmlns="http://www.w3.org/2000/svg">
<mask id="mask0_6792_1279" style="mask-type:alpha" maskUnits="userSpaceOnUse" x="0" y="0" width="24" height="24">
<rect width="24" height="24" fill="#D9D9D9"/>
</mask>
<g mask="url(#mask0_6792_1279)">
<path d="M12 0.999573C12.5521 0.999573 12.9998 1.44748 13 1.99957V2.99957H18C19.6567 2.99957 20.9998 4.34291 21 5.99957V17.9996C21 19.6564 19.6569 20.9996 18 20.9996H13V21.9996C13 22.5519 12.5523 22.9996 12 22.9996C11.4477 22.9996 11 22.5519 11 21.9996V20.9996H6C4.34315 20.9996 3 19.6564 3 17.9996V5.99957C3.00023 4.34291 4.34329 2.99957 6 2.99957H11V1.99957C11.0002 1.44748 11.4479 0.999573 12 0.999573ZM13 18.9996H18C18.5523 18.9996 19 18.5519 19 17.9996V5.99957C18.9998 5.44748 18.5521 4.99957 18 4.99957H13V18.9996Z" fill="white"/>
</g>
</svg>
