<svg width="24" height="24" viewBox="0 0 24 24" fill="none" xmlns="http://www.w3.org/2000/svg">
<mask id="mask0_6730_2136" style="mask-type:alpha" maskUnits="userSpaceOnUse" x="0" y="0" width="24" height="24">
<rect width="24" height="24" fill="#D9D9D9"/>
</mask>
<g mask="url(#mask0_6730_2136)">
<path d="M11.25 22.2V20.4692C9.16672 20.2551 7.41288 19.4358 5.98855 18.0115C4.56422 16.5872 3.74497 14.8333 3.5308 12.75H1.80005V11.25H3.5308C3.74497 9.16665 4.56422 7.41282 5.98855 5.98849C7.41288 4.56415 9.16672 3.7449 11.25 3.53074V1.79999H12.75V3.53074C14.8334 3.7449 16.5872 4.56415 18.0115 5.98849C19.4359 7.41282 20.2551 9.16665 20.4693 11.25H22.2V12.75H20.4693C20.2551 14.8333 19.4359 16.5872 18.0115 18.0115C16.5872 19.4358 14.8334 20.2551 12.75 20.4692V22.2H11.25ZM16.95 16.95C18.3167 15.5833 19 13.9333 19 12C19 10.0667 18.3167 8.41665 16.95 7.04999C15.5834 5.68332 13.9334 4.99999 12 4.99999C10.0667 4.99999 8.41672 5.68332 7.05005 7.04999C5.68338 8.41665 5.00005 10.0667 5.00005 12C5.00005 13.9333 5.68338 15.5833 7.05005 16.95C8.41672 18.3167 10.0667 19 12 19C13.9334 19 15.5834 18.3167 16.95 16.95ZM9.52605 14.474C8.84205 13.79 8.50005 12.9653 8.50005 12C8.50005 11.0347 8.84205 10.21 9.52605 9.52599C10.21 8.84199 11.0347 8.49999 12 8.49999C12.9654 8.49999 13.79 8.84199 14.474 9.52599C15.158 10.21 15.5 11.0347 15.5 12C15.5 12.9653 15.158 13.79 14.474 14.474C13.79 15.158 12.9654 15.5 12 15.5C11.0347 15.5 10.21 15.158 9.52605 14.474ZM13.4125 13.4125C13.8042 13.0208 14 12.55 14 12C14 11.45 13.8042 10.9792 13.4125 10.5875C13.0209 10.1958 12.55 9.99999 12 9.99999C11.45 9.99999 10.9792 10.1958 10.5875 10.5875C10.1959 10.9792 10 11.45 10 12C10 12.55 10.1959 13.0208 10.5875 13.4125C10.9792 13.8042 11.45 14 12 14C12.55 14 13.0209 13.8042 13.4125 13.4125Z" fill="#19213D"/>
</g>
</svg>
