<svg width="24" height="24" viewBox="0 0 24 24" fill="none" xmlns="http://www.w3.org/2000/svg">
<mask id="mask0_7453_3581" style="mask-type:alpha" maskUnits="userSpaceOnUse" x="0" y="0" width="24" height="24">
<rect width="24" height="24" fill="#D9D9D9"/>
</mask>
<g mask="url(#mask0_7453_3581)">
<path d="M4.57698 17.973C4.01414 17.2552 3.55864 16.4751 3.21048 15.6327C2.86248 14.7904 2.63206 13.9128 2.51923 13H4.04998C4.14998 13.7167 4.33331 14.4042 4.59998 15.0625C4.86664 15.7208 5.21664 16.3333 5.64998 16.9L4.57698 17.973ZM2.51923 11C2.63973 10.0872 2.87214 9.20957 3.21648 8.36724C3.56064 7.5249 4.02056 6.75124 4.59623 6.04624L5.64998 7.09999C5.21664 7.66665 4.86664 8.27915 4.59998 8.93749C4.33331 9.59582 4.14998 10.2833 4.04998 11H2.51923ZM10.95 21.45C10.0371 21.3435 9.16373 21.1156 8.32973 20.7662C7.49573 20.4169 6.71789 19.9627 5.99623 19.4037L7.04998 18.3C7.63331 18.7333 8.24998 19.0917 8.89998 19.375C9.54998 19.6583 10.2333 19.85 10.95 19.95V21.45ZM7.09998 5.68074L5.99623 4.59624C6.73456 4.03074 7.52489 3.57657 8.36723 3.23374C9.20956 2.89074 10.0871 2.66282 11 2.54999V4.04999C10.2833 4.14999 9.59581 4.33682 8.93748 4.61049C8.27914 4.88432 7.66664 5.24107 7.09998 5.68074ZM10.226 13.774C9.74198 13.29 9.49998 12.6987 9.49998 12C9.49998 11.3013 9.74198 10.71 10.226 10.226C10.71 9.74199 11.3013 9.49999 12 9.49999C12.6986 9.49999 13.29 9.74199 13.774 10.226C14.258 10.71 14.5 11.3013 14.5 12C14.5 12.6987 14.258 13.29 13.774 13.774C13.29 14.258 12.6986 14.5 12 14.5C11.3013 14.5 10.71 14.258 10.226 13.774ZM12.95 21.45V19.95C13.677 19.85 14.3728 19.6657 15.0375 19.397C15.7021 19.1285 16.323 18.7692 16.9 18.3192L18.0037 19.4037C17.2654 19.9794 16.4709 20.4362 15.6202 20.774C14.7696 21.1118 13.8795 21.3372 12.95 21.45ZM16.95 5.69999C16.3666 5.26665 15.7416 4.90832 15.075 4.62499C14.4083 4.34165 13.7166 4.14999 13 4.04999V2.54999C13.9128 2.65649 14.7929 2.88282 15.6402 3.22899C16.4877 3.57499 17.2756 4.03074 18.0037 4.59624L16.95 5.69999ZM19.4037 17.9537L18.35 16.9C18.7833 16.3333 19.1333 15.7208 19.4 15.0625C19.6666 14.4042 19.85 13.7167 19.95 13H21.4807C21.3602 13.9128 21.1278 14.7904 20.7835 15.6327C20.4393 16.4751 19.9794 17.2487 19.4037 17.9537ZM19.95 11C19.85 10.2833 19.6666 9.59582 19.4 8.93749C19.1333 8.27915 18.7833 7.66665 18.35 7.09999L19.423 6.02699C19.9858 6.74482 20.4413 7.5249 20.7895 8.36724C21.1375 9.20957 21.3679 10.0872 21.4807 11H19.95Z" fill="#0475F4"/>
</g>
</svg>
