<svg width="88" height="30" viewBox="0 0 88 30" fill="none" xmlns="http://www.w3.org/2000/svg">
<circle cx="15" cy="15" r="15" fill="white"/>
<path d="M21.8217 13.9891C19.513 12.4174 16.5587 13.0565 15.0065 15.4174C13.7087 17.387 11.7521 17.6348 10.9956 17.6348C8.52389 17.6348 6.83475 15.9 6.33258 14.1C6.32606 14.0804 6.32606 14.0674 6.31954 14.0478C6.31302 14.0283 6.3065 14.0087 6.3065 13.9891C6.11084 13.2391 6.05867 12.8804 6.05867 12.0848C6.05867 7.78696 10.4674 3 16.8195 3C23.3217 3 27.0456 7.95 28.0043 10.7022C27.9848 10.6565 27.9717 10.6044 27.9587 10.5587C26.113 5.17826 21.0065 1.30435 15 1.30435C7.44128 1.30435 1.30432 7.43479 1.30432 15C1.30432 21.763 6.18258 27.5478 12.9456 27.5478C18.3391 27.5478 21.9652 24.5217 23.6282 20.3544C24.5413 18.0783 23.8956 15.3978 21.8217 13.9891Z" fill="#003668"/>
<path d="M28.0956 10.9696C27.2935 8.28261 23.5434 3 16.8261 3C10.4739 3 6.06519 7.78696 6.06519 12.0848C6.06519 12.8804 6.11084 13.2391 6.31302 13.9891C6.22823 13.663 6.1891 13.3304 6.1891 13.0109C6.1891 8.53696 10.6695 5.43261 15.2804 5.43261C21.5152 5.43261 26.5761 10.487 26.5761 16.7217C26.5761 21.613 23.7652 25.8457 19.6761 27.8739C24.9326 25.9761 28.6956 20.9283 28.6956 15C28.6956 13.5978 28.5065 12.3652 28.0956 10.9696Z" fill="#E6002D"/>
<path d="M43.392 14.428H36.896V9.416H38.422V13.168H43.392V14.428ZM46.668 11.11H48.418V12.58H46.668V14.918H45.156V9.136H46.668V11.11ZM37.26 15.492H46.668V18.824H38.772V19.86H46.808V21.092H37.26V17.69H45.156V16.682H37.26V15.492ZM53.5295 15.632L55.1955 9.22L57.8695 19.23L56.6515 19.664L55.1955 14.176L53.5295 19.804L51.8775 14.204L50.4495 19.762L49.1895 19.314L51.8635 9.22L53.5295 15.632ZM58.7935 9.136H60.3055V21.33H58.7935V9.136ZM62.1691 11.222V9.892H69.5051V11.222H66.4391L69.7991 19.202L68.4691 19.776L65.9071 13.546L63.3591 19.874L61.9731 19.286L65.3471 11.222H62.1691ZM71.4931 9.136H73.0051V21.33H71.4931V9.136ZM75.9886 16.066V9.766H85.3966V11.096H77.5006V14.736H85.4246V16.066H81.4486V19.09H86.2926V20.434H75.0926V19.09H79.9226V16.066H75.9886Z" fill="#27355A"/>
</svg>
